<?xml version="1.0" standalone="no"?>
<!DOCTYPE svg PUBLIC "-//W3C//DTD SVG 1.1//EN" "http://www.w3.org/Graphics/SVG/1.1/DTD/svg11.dtd" >
<svg xmlns="http://www.w3.org/2000/svg">
<metadata>Generated by IcoMoon</metadata>
<defs>
<font id="icomoon" horiz-adv-x="1024">
<font-face units-per-em="1024" ascent="960" descent="-64" />
<missing-glyph horiz-adv-x="1024" />
<glyph unicode="&#x20;" horiz-adv-x="512" d="" />
<glyph unicode="&#xe900;" d="M705.669 921.523c-61.054 24.138-127.787 38.336-193.101 38.336-107.909 0-212.979-34.077-299.59-96.55l19.878-26.977c214.399 154.765 512.569 106.489 667.333-107.909 96.55-133.467 117.848-308.109 55.374-460.034l31.237-12.779c105.069 259.834-19.878 558.004-281.132 665.913zM93.71 218.693c-59.634 107.909-75.252 235.696-42.596 354.965l-32.657 8.519c-73.833-272.613 88.031-553.745 360.644-627.577 44.016-11.359 88.031-17.038 133.467-17.038 86.611 0 171.803 21.298 247.055 63.894l-17.038 29.817c-231.437-127.787-521.088-44.016-648.875 187.421zM512.568 789.476c-188.841 0-340.766-153.345-340.766-340.766 0-132.047 76.672-252.735 197.36-309.529l14.199 31.237c-154.765 70.993-221.498 252.735-149.085 406.079 70.993 153.345 254.155 220.078 407.499 149.085s220.078-254.155 149.085-407.499c-31.237-65.313-83.772-119.268-149.085-149.085l14.199-31.237c170.383 79.512 245.635 282.552 166.123 452.935-56.794 120.688-177.482 198.78-309.529 198.78zM972.603 908.744h-34.077v-34.077h34.077v34.077zM51.115-12.744h34.077v34.077h-34.077v-34.077zM0-63.859h34.077v34.077h-34.077v-34.077z" />
<glyph unicode="&#xe901;" d="M589.241 600.635c5.679 11.359 8.519 22.718 8.519 35.496 0 46.855-38.336 85.191-85.191 85.191s-85.191-38.336-85.191-85.191c0-12.779 2.84-24.138 8.519-35.496-55.374-9.939-93.711-56.794-93.711-110.749v-161.864c0-9.939 7.099-17.038 17.038-17.038h51.115v-221.498c0-9.939 7.099-17.038 17.038-17.038h170.383c9.939 0 17.038 7.099 17.038 17.038v221.498h51.115c9.939 0 17.038 7.099 17.038 17.038v161.864c0 53.955-39.756 100.81-93.711 110.749zM648.875 345.060h-34.077v170.383h-34.077v-408.919h-51.115v238.536h-34.077v-238.536h-51.115v410.339h-34.077v-170.383h-34.077v143.406c0 42.596 34.077 76.672 76.672 76.672h14.199c9.939 0 17.038 7.099 17.038 17.038 0 4.26-1.42 9.939-5.679 12.779-11.359 9.939-17.038 24.138-17.038 38.336 0 28.397 22.718 51.115 51.115 51.115s51.115-22.718 51.115-51.115c0-14.199-7.099-28.397-17.038-38.336-7.099-5.679-7.099-17.038-1.42-24.138 2.84-4.26 8.519-5.679 12.779-5.679h14.199c42.596 0 76.672-34.077 76.672-76.672v-144.826zM935.686 205.914c4.26 11.359 4.26 22.718 0 34.077-5.679 19.878-21.298 35.496-41.176 39.756-18.458 4.26-38.336 1.42-52.535-11.359-19.878-15.618-26.977-41.176-19.878-63.894-21.298-5.679-36.916-25.557-36.916-48.275v-99.39c0-9.939 7.099-17.038 17.038-17.038h17.038v-86.611c0-9.939 7.099-17.038 17.038-17.038h85.191c9.939 0 17.038 7.099 17.038 17.038v86.611h17.038c9.939 0 17.038 7.099 17.038 17.038v99.39c0 22.718-15.618 42.596-36.916 49.695zM938.526 73.867h-17.038c-9.939 0-17.038-7.099-17.038-17.038v-86.611h-51.115v86.611c0 9.939-7.099 17.038-17.038 17.038h-17.038v82.352c0 8.519 8.519 17.038 17.038 15.618h17.038c9.939 0 17.038 7.099 17.038 17.038 0 5.679-2.84 9.939-7.099 14.199-11.359 7.099-12.779 22.718-5.679 32.657 1.42 1.42 2.84 4.26 5.679 5.679 7.099 5.679 15.618 7.099 22.718 4.26 8.519-2.84 14.199-8.519 17.038-17.038 2.84-9.939 0-21.298-8.519-26.977-7.099-5.679-9.939-15.618-4.26-24.138 2.84-4.26 8.519-7.099 14.199-7.099h17.038c8.519 0 17.038-7.099 17.038-15.618v-80.932zM150.505 883.186c4.26 11.359 4.26 22.718 0 34.077-5.679 19.878-21.298 35.496-41.176 39.756-18.458 4.26-38.336 1.42-52.535-11.359-19.878-15.618-26.977-41.176-19.878-63.894-21.298-5.679-36.916-25.557-36.916-48.275v-96.55c0-9.939 7.099-17.038 17.038-17.038h17.038v-100.81c0-9.939 7.099-17.038 17.038-17.038h85.191c9.939 0 17.038 7.099 17.038 17.038v102.23h17.038c9.939 0 17.038 7.099 17.038 17.038v96.55c0 22.718-14.199 41.176-36.916 48.275zM153.344 755.399h-17.038c-9.939 0-17.038-7.099-17.038-17.038v-102.23h-51.115v102.23c0 9.939-7.099 17.038-17.038 17.038h-17.038v79.512c0 8.519 8.519 17.038 17.038 15.618h17.038c9.939 0 17.038 7.099 17.038 17.038 0 5.679-2.84 9.939-7.099 14.199-9.939 7.099-12.779 21.298-5.679 32.657 1.42 1.42 2.84 4.26 5.679 5.679 7.099 5.679 15.618 7.099 22.718 4.26 8.519-1.42 14.199-8.519 17.038-17.038 2.84-9.939 0-21.298-8.519-26.977-7.099-5.679-9.939-15.618-4.26-24.138 2.84-4.26 8.519-7.099 14.199-7.099h17.038c8.519 0 17.038-7.099 17.038-15.618v-78.092zM989.641 959.859v-34.077h34.077v34.077h-34.077zM938.526 874.667h34.077v34.077h-34.077v-34.077zM51.115-12.744h34.077v34.077h-34.077v-34.077zM0-63.859h34.077v34.077h-34.077v-34.077z" />
<glyph unicode="&#xe902;" d="M512 960c-283.022 0-512-228.978-512-512s228.978-512 512-512c283.022 0 512 228.978 512 512s-228.978 512-512 512zM595.911 918.756c196.267-35.556 349.867-189.156 386.844-385.422h-216.178c-18.489 0-32.711 15.644-32.711 34.133 0 0 0 0 0 1.422 0 36.978-29.867 68.267-68.267 68.267h-136.533c-18.489 0-34.133 15.644-34.133 34.133s15.644 34.133 34.133 34.133h51.2c38.4 0 68.267 29.867 68.267 68.267s-29.867 68.267-68.267 68.267h-34.133c-9.956 0-17.067 7.111-17.067 17.067 0 4.267 1.422 8.533 5.689 12.8 2.844 2.844 7.111 4.267 11.378 4.267 25.6-1.422 46.933 17.067 49.778 42.667zM34.134 448c0 98.133 29.867 193.422 85.333 273.067h52.622c8.533 0 15.644-8.533 15.644-18.489 0-28.444 22.756-49.778 51.2-49.778h51.2v-17.067h34.133v17.067h8.533c24.178 0 42.667-18.489 42.667-42.667s-18.489-42.667-42.667-42.667h-27.022c-28.444 0-49.778-24.178-49.778-51.2 0 0 0 0 0 0 0-9.956-7.111-17.067-17.067-17.067h-85.333c-28.444 0-51.2-22.756-51.2-51.2v-34.133c0-9.956-7.111-17.067-17.067-17.067 0 0 0 0 0 0h-48.356c-1.422 17.067-2.844 34.133-2.844 51.2zM290.134 772.267c0 9.956 7.111 17.067 17.067 17.067s17.067-7.111 17.067-17.067c0-9.956-7.111-17.067-17.067-17.067s-17.067 7.111-17.067 17.067zM614.4-18.489c-180.622-39.822-369.778 28.444-482.133 176.356h55.467v-17.067h34.133v17.067h25.6c4.267 0 8.533-4.267 8.533-8.533 0-24.178 18.489-42.667 42.667-42.667h85.333c24.178 0 42.667 18.489 42.667 42.667v34.133c0 24.178 18.489 42.667 42.667 42.667s42.667-18.489 42.667-42.667v-85.333c0-24.178 18.489-42.667 42.667-42.667h51.2c4.267 0 8.533-4.267 8.533-8.533v-65.422zM187.734 277.334c0 9.956 7.111 17.067 17.067 17.067s17.067-7.111 17.067-17.067c0-9.956-7.111-17.067-17.067-17.067s-17.067 7.111-17.067 17.067zM648.534-9.955v56.889c0 24.178-18.489 42.667-42.667 42.667h-51.2c-4.267 0-8.533 4.267-8.533 8.533v85.333c0 42.667-34.133 76.8-76.8 76.8s-76.8-34.133-76.8-76.8v-34.133c0-4.267-4.267-8.533-8.533-8.533h-85.333c-4.267 0-8.533 4.267-8.533 8.533 0 24.178-18.489 42.667-42.667 42.667h-25.6v36.978c27.022 9.956 41.244 38.4 31.289 65.422s-38.4 41.244-65.422 31.289c-27.022-9.956-41.244-38.4-31.289-65.422 5.689-14.222 17.067-25.6 31.289-31.289v-36.978h-79.644c-32.711 52.622-55.467 110.933-66.844 172.089h42.667c28.444 0 51.2 22.756 51.2 51.2v32.711c0 9.956 7.111 17.067 17.067 17.067h85.333c28.444 0 51.2 22.756 51.2 49.778 0 8.533 5.689 17.067 15.644 18.489h27.022c42.667 0 76.8 34.133 76.8 76.8s-34.133 76.8-76.8 76.8h-8.533v36.978c27.022 9.956 41.244 38.4 31.289 65.422s-38.4 41.244-65.422 31.289c-27.022-9.956-41.244-38.4-31.289-65.422 5.689-14.222 17.067-25.6 31.289-31.289v-36.978h-51.2c-9.956 0-17.067 7.111-17.067 17.067 0 28.444-21.333 51.2-49.778 51.2h-25.6c102.4 122.311 258.844 184.889 416.711 167.822-1.422-8.533-8.533-14.222-17.067-14.222-28.444 0-51.2-22.756-51.2-51.2s22.756-51.2 51.2-51.2h34.133c18.489 0 34.133-15.644 34.133-34.133s-15.644-34.133-34.133-34.133h-51.2c-38.4 0-68.267-29.867-68.267-68.267s29.867-68.267 68.267-68.267h136.533c18.489 0 34.133-15.644 34.133-34.133 0 0 0 0 0 0 0-36.978 29.867-66.844 66.844-66.844 0 0 0 0 0 0h220.444c1.422-17.067 2.844-34.133 2.844-51.2h-42.667c-11.378 0-21.333-4.267-28.444-11.378-8.533-7.111-12.8-18.489-12.8-29.867v-54.044c0-4.267-2.844-7.111-7.111-7.111h-2.844c-22.756 0-41.244-18.489-41.244-41.244v-54.044c0-4.267-2.844-7.111-7.111-7.111h-78.222v36.978c27.022 9.956 41.244 38.4 31.289 65.422-9.956 25.6-38.4 39.822-65.422 29.867s-41.244-38.4-31.289-65.422c5.689-14.222 17.067-25.6 31.289-31.289v-36.978h-27.022c-22.756 0-41.244-18.489-41.244-41.244v-71.111c0-22.756 18.489-41.244 41.244-41.244h120.889c-52.622-45.511-112.356-79.644-179.2-99.556zM750.934 311.467c-9.956 0-17.067 7.111-17.067 17.067s7.111 17.067 17.067 17.067c9.956 0 17.067-7.111 17.067-17.067s-7.111-17.067-17.067-17.067zM863.289 123.734h-156.444c-4.267 0-7.111 2.844-7.111 7.111v71.111c0 4.267 2.844 7.111 7.111 7.111h27.022v-17.067h34.133v17.067h78.222c22.756 0 41.244 18.489 41.244 41.244v54.044c0 4.267 2.844 7.111 7.111 7.111h2.844c22.756 0 41.244 18.489 41.244 41.244v54.044c0 1.422 1.422 4.267 2.844 5.689s2.844 1.422 5.689 1.422h42.667c-8.533-108.089-54.044-210.489-126.578-290.133z" />
<glyph unicode="&#xe903;" d="M839.111 749.511c-9.956 27.022-38.4 41.244-65.422 31.289s-41.244-38.4-31.289-65.422c5.689-14.222 17.067-25.6 31.289-31.289v-88.178h34.133v88.178c27.022 9.956 41.244 38.4 31.289 65.422zM790.756 715.378c-9.956 0-17.067 7.111-17.067 17.067s7.111 17.067 17.067 17.067c9.956 0 17.067-7.111 17.067-17.067s-7.111-17.067-17.067-17.067zM527.645 558.934c-5.689 1.422-12.8 2.844-18.489 2.844h-51.2c-32.711 0-59.733-27.022-59.733-59.733s27.022-59.733 59.733-59.733h51.2c15.644 0 31.289 5.689 42.667 17.067v0 0c1.422 1.422 2.844 2.844 2.844 4.267 1.422 1.422 2.844 2.844 4.267 5.689v0c2.844 4.267 5.689 9.956 7.111 15.644 9.956 31.289-7.111 64-38.4 73.956zM527.645 483.556c-4.267-4.267-11.378-7.111-18.489-7.111h-51.2c-14.222 0-25.6 11.378-25.6 25.6s11.378 25.6 25.6 25.6h51.2c14.222 0 25.6-11.378 25.6-25.6 0-7.111-2.844-12.8-7.111-18.489z" />
<glyph unicode="&#xe904;" d="M694.801 606.887l109.196 109.196c59.561-45.38 144.649-35.453 191.447 24.108 45.38 59.561 35.453 144.649-24.108 191.447-24.108 18.436-53.889 28.363-83.669 28.363-75.161 0-136.14-60.979-136.14-136.14 0-29.781 9.927-59.561 28.363-83.669l-109.196-109.196 24.108-24.108zM886.248 873.495c9.927 0 17.018-7.091 17.018-17.018h34.035c0 21.272-14.181 41.126-34.035 48.216v18.436c55.307-9.927 93.596-62.398 83.669-117.705-7.091-42.544-41.126-76.579-83.669-83.669v18.436c19.854 7.091 34.035 26.944 34.035 48.216 0 35.453-28.363 45.38-45.38 49.634-19.854 5.673-22.69 8.509-22.69 18.436s8.509 17.018 17.018 17.018zM785.561 839.46c7.091 42.544 41.126 76.579 83.669 83.669v-18.436c-19.854-7.091-34.035-26.944-34.035-48.216 0-35.453 28.363-45.38 45.38-49.634 19.854-5.673 22.69-8.509 22.69-18.436s-7.091-17.018-17.018-17.018c-9.927 0-17.018 7.091-17.018 17.018h-34.035c0-21.272 14.181-41.126 34.035-48.216v-18.436c-55.307 9.927-92.178 62.398-83.669 117.705zM886.248 584.197c-68.070 0-126.213-51.053-134.722-119.123h-35.453v-34.035h35.453c9.927-75.161 77.997-127.631 151.74-117.705 75.161 9.927 127.631 77.997 117.705 151.74-8.509 68.070-65.234 119.123-134.722 119.123zM886.248 397.004c-9.927 0-17.018 7.091-17.018 17.018h-34.035c0-21.272 14.181-41.126 34.035-48.216v-18.436c-55.307 9.927-93.596 62.398-83.669 117.705 7.091 42.544 41.126 76.579 83.669 83.669v-18.436c-19.854-7.091-34.035-26.944-34.035-48.216 0-35.453 28.363-45.38 45.38-49.634 19.854-5.673 22.69-8.509 22.69-18.436 0-8.509-7.091-17.018-17.018-17.018zM986.935 431.039c-7.091-42.544-41.126-76.579-83.669-83.669v18.436c19.854 7.091 34.035 26.944 34.035 48.216 0 35.453-28.363 45.38-45.38 49.634-19.854 5.673-22.69 8.509-22.69 18.436s7.091 17.018 17.018 17.018 17.018-7.091 17.018-17.018h34.035c0 21.272-14.181 41.126-34.035 48.216v18.436c55.307-9.927 93.596-62.398 83.669-117.705zM137.477 311.917c68.070 0 126.213 51.053 134.722 119.123h35.453v34.035h-35.453c-9.927 75.161-77.997 127.631-151.74 117.705-75.161-9.927-127.631-77.997-117.705-151.74 8.509-68.070 66.652-119.123 134.722-119.123zM137.477 499.109c9.927 0 17.018-7.091 17.018-17.018h34.035c0 21.272-14.181 41.126-34.035 48.216v18.436c55.307-9.927 93.596-62.398 83.669-117.705-7.091-42.544-41.126-76.579-83.669-83.669v18.436c19.854 7.091 34.035 26.944 34.035 48.216 0 35.453-28.363 45.38-45.38 49.634-19.854 5.673-22.69 8.509-22.69 18.436s8.509 17.018 17.018 17.018zM36.79 465.074c7.091 42.544 41.126 76.579 83.669 83.669v-18.436c-19.854-7.091-34.035-26.944-34.035-48.216 0-35.453 28.363-45.38 45.38-49.634 19.854-5.673 22.69-8.509 22.69-18.436s-7.091-17.018-17.018-17.018c-9.927 0-17.018 7.091-17.018 17.018h-34.035c0-21.272 14.181-41.126 34.035-48.216v-18.436c-55.307 9.927-92.178 62.398-83.669 117.705zM950.064 194.212c-19.854 9.927-41.126 15.599-63.816 15.599-38.289 0-75.161-15.599-100.687-43.962l-107.778 123.377-25.526-22.69 113.45-130.468c-35.453-66.652-8.509-148.903 56.725-184.356 66.652-35.453 148.903-8.509 182.938 56.725 36.871 69.488 11.345 151.74-55.307 185.775zM886.248 22.619c-9.927 0-17.018 7.091-17.018 17.018h-34.035c0-21.272 14.181-41.126 34.035-48.216v-18.436c-55.307 9.927-93.596 62.398-83.669 117.705 7.091 42.544 41.126 76.579 83.669 83.669v-18.436c-19.854-7.091-34.035-26.944-34.035-48.216 0-35.453 28.363-45.38 45.38-49.634 19.854-5.673 22.69-8.509 22.69-18.436 0-8.509-7.091-17.018-17.018-17.018zM986.935 56.654c-7.091-42.544-41.126-76.579-83.669-83.669v18.436c19.854 7.091 34.035 26.944 34.035 48.216 0 35.453-28.363 45.38-45.38 49.634-19.854 5.673-22.69 8.509-22.69 18.436s7.091 17.018 17.018 17.018 17.018-7.091 17.018-17.018h34.035c0 21.272-14.181 41.126-34.035 48.216v18.436c55.307-8.509 93.596-62.398 83.669-117.705zM347.36 290.645l-126.213-110.614c-59.561 46.798-144.649 36.871-191.447-22.69s-36.871-144.649 22.69-191.447c24.108-18.436 53.889-29.781 83.669-29.781 75.161 0 136.14 60.979 136.14 136.14 0 29.781-9.927 59.561-28.363 83.669l124.795 109.196-21.272 25.526zM137.477 22.619c-9.927 0-17.018 7.091-17.018 17.018h-34.035c0-21.272 14.181-41.126 34.035-48.216v-18.436c-55.307 9.927-93.596 62.398-83.669 117.705 7.091 42.544 41.126 76.579 83.669 83.669v-18.436c-19.854-7.091-34.035-26.944-34.035-48.216 0-35.453 28.363-45.38 45.38-49.634 19.854-5.673 22.69-8.509 22.69-18.436 0-8.509-7.091-17.018-17.018-17.018zM238.164 56.654c-7.091-42.544-41.126-76.579-83.669-83.669v18.436c19.854 7.091 34.035 26.944 34.035 48.216 0 35.453-28.363 45.38-45.38 49.634-19.854 5.673-22.69 8.509-22.69 18.436s7.091 17.018 17.018 17.018c9.927 0 17.018-7.091 17.018-17.018h34.035c0 21.272-14.181 41.126-34.035 48.216v18.436c56.725-8.509 93.596-62.398 83.669-117.705zM53.808 716.083c24.108-18.436 53.889-29.781 83.669-29.781s58.143 9.927 82.251 28.363l104.941-120.541 25.526 22.69-106.359 121.959c46.798 59.561 36.871 144.649-22.69 191.447s-144.649 36.871-191.447-22.69c-45.38-59.561-35.453-144.649 24.108-191.447zM137.477 873.495c9.927 0 17.018-7.091 17.018-17.018h34.035c0 21.272-14.181 41.126-34.035 48.216v18.436c55.307-9.927 93.596-62.398 83.669-117.705-7.091-42.544-41.126-76.579-83.669-83.669v18.436c19.854 7.091 34.035 26.944 34.035 48.216 0 35.453-28.363 45.38-45.38 49.634-19.854 5.673-22.69 8.509-22.69 18.436s8.509 17.018 17.018 17.018zM36.79 839.46c7.091 42.544 41.126 76.579 83.669 83.669v-18.436c-19.854-7.091-34.035-26.944-34.035-48.216 0-35.453 28.363-45.38 45.38-49.634 19.854-5.673 22.69-8.509 22.69-18.436s-7.091-17.018-17.018-17.018c-9.927 0-17.018 7.091-17.018 17.018h-34.035c0-21.272 14.181-41.126 34.035-48.216v-18.436c-55.307 9.927-92.178 62.398-83.669 117.705z" />
<glyph unicode="&#xe905;" d="M579.933 629.577c11.345 14.181 17.018 32.617 18.436 51.053 0 46.798-38.289 85.088-85.088 85.088s-85.088-38.289-85.088-85.088c0-18.436 5.673-36.871 18.436-51.053-58.143-4.254-102.105-52.471-103.523-110.614v-144.649c0-9.927 7.091-17.018 17.018-17.018 0 0 0 0 0 0h51.053v-221.228c0-9.927 7.091-17.018 17.018-17.018 0 0 0 0 0 0h170.175c9.927 0 17.018 7.091 17.018 17.018 0 0 0 0 0 0v221.228h51.053c9.927 0 17.018 7.091 17.018 17.018 0 0 0 0 0 0v144.649c-1.418 58.143-45.38 106.359-103.523 110.614zM511.863 731.682c28.363 0 51.053-22.69 51.053-51.053s-22.69-51.053-51.053-51.053c-28.363 0-51.053 22.69-51.053 51.053s22.69 51.053 51.053 51.053zM648.003 391.332h-34.035v153.158h-34.035v-391.403h-51.053v221.228h-34.035v-221.228h-51.053v391.403h-34.035v-153.158h-34.035v127.631c0 42.544 34.035 76.579 76.579 76.579h117.705c42.544 0 76.579-34.035 76.579-76.579l1.418-127.631z" />
<glyph unicode="&#xe906;" d="M1019.504 457.447l-51.641 68.015-26.45-20.153 30.229-40.305h-136.030c-3.779 73.053-32.748 143.587-83.129 199.006l95.724 95.724 5.038-41.565 34.007 3.779-8.817 76.831c-1.26 7.557-7.557 13.855-15.114 15.114l-76.831 8.817-3.779-34.007 41.565-5.038-95.724-95.724c-55.419 49.122-124.694 78.091-199.006 81.87v137.289l40.305-30.229 20.153 27.71-68.015 51.641c-6.298 5.038-13.855 5.038-20.153 0l-68.015-51.641 20.153-27.71 40.305 30.229v-137.289c-74.312-3.779-143.587-32.748-199.006-81.87l-95.724 95.724 41.565 5.038-3.779 34.007-76.831-8.817c-7.557-1.26-13.855-7.557-15.114-15.114l-8.817-76.831 36.526-3.779 5.038 41.565 95.724-95.724c-49.122-55.419-78.091-124.694-81.87-199.006h-138.549l30.229 40.305-27.71 20.153-51.641-68.015c-5.038-6.298-5.038-13.855 0-20.153l51.641-68.015 27.71 20.153-30.229 40.305h137.289c3.779-74.312 32.748-143.587 81.87-199.006l-96.984-96.984-7.557 50.381-32.748-3.779 12.595-84.389c1.26-7.557 7.557-13.855 13.855-13.855l84.389-12.595 5.038 34.007-50.381 7.557 96.984 96.984c55.419-49.122 124.694-78.091 199.006-81.87v-137.289l-40.305 30.229-20.153-27.71 68.015-51.641c6.298-5.038 13.855-5.038 20.153 0l68.015 51.641-20.153 27.71-40.305-30.229v136.030c74.312 3.779 143.587 32.748 199.006 81.87l95.724-95.724-41.565-5.038 3.779-34.007 76.831 8.817c7.557 1.26 13.855 7.557 15.114 15.114l8.817 76.831-36.526 5.038-5.038-41.565-95.724 95.724c49.122 55.419 78.091 124.694 81.87 199.006h137.289l-30.229-41.565 27.71-20.153 51.641 68.015c3.779 6.298 3.779 13.855-1.26 20.153zM513.172 158.938c-159.961 0-288.433 129.732-289.693 289.693 0 159.961 129.732 289.693 289.693 289.693s289.693-129.732 289.693-289.693c-1.26-161.22-129.732-289.693-289.693-289.693z" />
<glyph unicode="&#xe907;" d="M665.575 447.371c0-20.153-3.779-40.305-11.336-57.939l31.488-12.595c8.817 22.672 13.855 46.603 13.855 71.793v1.26l-34.007-2.519zM571.11 306.303l12.595-31.488c22.672 8.817 42.824 22.672 60.458 40.305l-23.931 23.931c-12.595-13.855-30.229-25.191-49.122-32.748zM370.844 505.309l-31.488 12.595c-8.817-22.672-13.855-46.603-13.855-71.793v0h34.007c0 21.412 3.779 41.565 11.336 59.198zM644.163 580.881l-23.931-23.931c13.855-13.855 25.191-31.488 34.007-49.122l31.488 12.595c-10.076 22.672-23.931 42.824-41.565 60.458zM340.616 375.577c8.817-22.672 22.672-42.824 40.305-60.458l23.931 23.931c-13.855 13.855-25.191 31.488-32.748 49.122l-31.488-12.595zM453.974 588.438l-12.595 31.488c-22.672-10.076-42.824-23.931-60.458-40.305l23.931-23.931c13.855 13.855 30.229 25.191 49.122 32.748zM571.11 589.698l12.595 31.488c-22.672 8.817-46.603 13.855-70.534 13.855v0-34.007c20.153 0 39.046-3.779 57.939-11.336zM453.974 306.303l-12.595-31.488c22.672-8.817 46.603-13.855 71.793-13.855v0 34.007c-20.153 0-40.305 3.779-59.198 11.336zM513.172 515.385c-37.786 0-68.015-30.229-68.015-68.015s30.229-68.015 68.015-68.015c37.786 0 68.015 30.229 68.015 68.015s-30.229 68.015-68.015 68.015zM513.172 413.363c-18.893 0-34.007 15.114-34.007 34.007s15.114 34.007 34.007 34.007c18.893 0 34.007-15.114 34.007-34.007s-15.114-34.007-34.007-34.007z" />
<glyph unicode="&#xe908;" d="M840.829 742.834l25.638 22.622c-69.373 78.421-162.875 131.205-265.426 150.81l-7.541-31.67c95.010-18.097 182.48-67.865 247.328-141.761zM160.676 768.471l25.638-22.622c64.848 70.881 150.81 120.648 244.312 138.745l-6.032 33.178c-102.551-19.605-194.545-72.389-263.918-149.302zM95.828 595.040l-31.67 12.065c-36.194-102.551-36.194-215.658 0-319.717l31.67 12.065c-33.178 95.010-33.178 200.577 0 295.588zM177.265 107.923c67.865-67.865 153.826-113.108 247.328-131.205l6.032 33.178c-85.962 16.589-165.891 58.816-229.231 120.648l-24.13-22.622zM610.090 14.421l7.541-33.178c87.47 19.605 168.907 64.848 232.247 129.697l-24.13 24.13c-58.816-60.324-134.221-102.551-215.658-120.648zM970.526 570.91l-33.178-9.049c10.557-37.703 15.081-76.913 15.081-114.616 0-49.767-9.049-101.043-25.638-147.794l31.67-12.065c33.178 91.994 37.703 190.021 12.065 283.523zM884.564 617.661h67.865c9.049 0 16.589 7.541 16.589 16.589v69.373c0 9.049-7.541 16.589-16.589 16.589h-67.865c-9.049 0-16.589-7.541-16.589-16.589v0-67.865c0-10.557 7.541-18.097 16.589-18.097zM902.661 687.034h33.178v-34.686h-33.178v34.686zM546.75 960h-67.865c-9.049 0-16.589-7.541-16.589-16.589v0-67.865c0-9.049 7.541-16.589 16.589-16.589h67.865c9.049 0 16.589 7.541 16.589 16.589v67.865c0 9.049-7.541 16.589-16.589 16.589zM528.652 892.135h-33.178v34.686h33.178v-34.686zM156.152 738.309h-67.865c-9.049 0-16.589-7.541-16.589-16.589v-67.865c0-9.049 7.541-16.589 16.589-16.589h67.865c9.049 0 16.589 7.541 16.589 16.589v67.865c0 9.049-7.541 16.589-16.589 16.589zM138.054 668.937h-33.178v34.686h34.686l-1.508-34.686zM156.152 258.733h-67.865c-9.049 0-16.589-7.541-16.589-16.589v-67.865c0-9.049 7.541-16.589 16.589-16.589h67.865c9.049 0 16.589 7.541 16.589 16.589v0 67.865c0 9.049-7.541 16.589-16.589 16.589zM138.054 190.869h-33.178v34.686h34.686l-1.508-34.686zM546.75 37.043h-67.865c-9.049 0-16.589-7.541-16.589-16.589v0-67.865c0-9.049 7.541-16.589 16.589-16.589h67.865c9.049 0 16.589 7.541 16.589 16.589v67.865c0 9.049-7.541 16.589-16.589 16.589zM528.652-30.822h-33.178v34.686h33.178v-34.686zM935.839 258.733h-67.865c-9.049 0-16.589-7.541-16.589-16.589v-67.865c0-9.049 7.541-16.589 16.589-16.589h67.865c9.049 0 16.589 7.541 16.589 16.589v0 67.865c1.508 9.049-7.541 16.589-16.589 16.589zM919.25 190.869h-34.686v34.686h34.686v-34.686z" />
<glyph unicode="&#xe909;" d="M512.063 789.585c-187.004 0-339.323-152.318-339.323-342.339 0-188.513 152.318-342.339 339.323-342.339s339.323 153.826 339.323 342.339-152.318 342.339-339.323 342.339zM412.529 738.309c-19.605-22.622-36.194-49.767-48.259-76.913-22.622 3.016-43.735 6.032-63.34 9.049 31.67 30.162 70.881 52.784 111.599 67.865zM273.784 640.283c25.638-4.524 51.275-9.049 78.421-12.065-16.589-52.784-25.638-107.075-27.146-162.875h-117.632c3.016 63.34 27.146 125.172 66.356 174.94zM207.427 430.657h117.632c1.508-55.8 10.557-110.091 27.146-162.875-27.146-3.016-54.292-7.541-78.421-12.065-39.211 48.259-63.34 110.091-66.356 174.94zM300.929 225.555c21.113 3.016 42.227 6.032 63.34 9.049 12.065-28.654 27.146-54.292 48.259-76.913-40.719 13.573-79.929 36.194-111.599 67.865zM495.474 141.102c-36.194 9.049-69.373 43.735-93.502 96.518 30.162 3.016 61.832 4.524 93.502 4.524v-101.043zM495.474 276.831c-36.194 0-72.389-1.508-107.075-6.032-18.097 51.275-27.146 105.567-28.654 159.859h135.729v-153.826zM495.474 463.835h-135.729c1.508 54.292 10.557 108.583 28.654 159.859 34.686-3.016 70.881-4.524 107.075-6.032v-153.826zM495.474 652.348c-31.67 0-63.34 1.508-93.502 4.524 24.13 51.275 57.308 87.47 93.502 96.518v-101.043zM816.7 463.835h-117.632c-1.508 55.8-10.557 110.091-27.146 162.875 27.146 3.016 54.292 7.541 78.421 12.065 39.211-48.259 63.34-110.091 66.356-174.94zM723.197 668.937c-21.113-3.016-42.227-6.032-63.34-9.049-12.065 28.654-27.146 54.292-48.259 76.913 40.719-13.573 79.929-36.194 111.599-67.865zM528.652 753.39c36.194-9.049 69.373-43.735 93.502-96.518-30.162-3.016-61.832-4.524-93.502-4.524v101.043zM528.652 617.661c36.194 0 72.389 1.508 107.075 6.032 18.097-51.275 27.146-105.567 28.654-159.859h-135.729v153.826zM528.652 430.657h135.729c-1.508-54.292-10.557-108.583-28.654-159.859-34.686 3.016-70.881 4.524-107.075 6.032v153.826zM528.652 141.102v99.535c31.67 0 63.34-1.508 93.502-4.524-24.13-49.767-57.308-85.962-93.502-95.010zM611.598 156.183c19.605 22.622 36.194 49.767 48.259 76.913 22.622-3.016 43.735-6.032 63.34-9.049-31.67-30.162-70.881-52.784-111.599-67.865zM750.343 254.209c-25.638 4.524-51.275 9.049-78.421 12.065 16.589 52.784 25.638 107.075 27.146 162.875h117.632c-3.016-63.34-27.146-125.172-66.356-174.94z" />
<glyph unicode="&#xe90a;" d="M840.829 742.834l25.638 22.622c-69.373 78.421-162.875 131.205-265.426 150.81l-7.541-31.67c95.010-18.097 182.48-67.865 247.328-141.761zM160.676 768.471l25.638-22.622c64.848 70.881 150.81 120.648 244.312 138.745l-6.032 33.178c-102.551-19.605-194.545-72.389-263.918-149.302zM95.827 595.040l-31.67 12.065c-36.194-102.551-36.194-215.658 0-319.717l31.67 12.065c-33.178 95.010-33.178 200.577 0 295.588zM177.265 107.923c67.865-67.865 153.826-113.108 247.328-131.205l6.032 33.178c-85.962 16.589-165.891 58.816-229.231 120.648l-24.13-22.622zM610.090 14.421l7.541-33.178c87.47 19.605 168.907 64.848 232.247 129.697l-24.13 24.13c-58.816-60.324-134.221-102.551-215.658-120.648zM970.526 570.91l-33.178-9.049c10.557-37.703 15.081-76.913 15.081-114.616 0-49.767-9.049-101.043-25.638-147.794l31.67-12.065c33.178 91.994 37.703 190.021 12.065 283.523zM884.564 617.661h67.865c9.049 0 16.589 7.541 16.589 16.589v69.373c0 9.049-7.541 16.589-16.589 16.589h-67.865c-9.049 0-16.589-7.541-16.589-16.589 0 0 0 0 0 0v-67.865c0-10.557 7.541-18.097 16.589-18.097zM902.661 687.034h33.178v-34.686h-33.178v34.686zM546.749 960h-67.865c-9.049 0-16.589-7.541-16.589-16.589 0 0 0 0 0 0v-67.865c0-9.049 7.541-16.589 16.589-16.589h67.865c9.049 0 16.589 7.541 16.589 16.589v67.865c0 9.049-7.541 16.589-16.589 16.589zM528.652 892.136h-33.178v34.686h33.178v-34.686zM156.151 738.309h-67.865c-9.049 0-16.589-7.541-16.589-16.589v-67.865c0-9.049 7.541-16.589 16.589-16.589h67.865c9.049 0 16.589 7.541 16.589 16.589v67.865c0 9.049-7.541 16.589-16.589 16.589zM138.054 668.937h-33.178v34.686h34.686v-34.686zM156.151 258.733h-67.865c-9.049 0-16.589-7.541-16.589-16.589v-67.865c0-9.049 7.541-16.589 16.589-16.589h67.865c9.049 0 16.589 7.541 16.589 16.589 0 0 0 0 0 0v67.865c0 9.049-7.541 16.589-16.589 16.589zM138.054 190.869h-33.178v34.686h34.686v-34.686zM546.749 37.043h-67.865c-9.049 0-16.589-7.541-16.589-16.589 0 0 0 0 0 0v-67.865c0-9.049 7.541-16.589 16.589-16.589h67.865c9.049 0 16.589 7.541 16.589 16.589v67.865c0 9.049-7.541 16.589-16.589 16.589zM528.652-30.822h-33.178v34.686h33.178v-34.686zM935.839 258.733h-67.865c-9.049 0-16.589-7.541-16.589-16.589v-67.865c0-9.049 7.541-16.589 16.589-16.589h67.865c9.049 0 16.589 7.541 16.589 16.589 0 0 0 0 0 0v67.865c1.508 9.049-7.541 16.589-16.589 16.589zM919.25 190.869h-34.686v34.686h34.686v-34.686z" />
<glyph unicode="&#xe90b;" d="M512.063 789.585c-187.004 0-339.323-152.318-339.323-342.339 0-188.513 152.318-342.339 339.323-342.339s339.323 153.826 339.323 342.339c0 188.513-152.318 342.339-339.323 342.339zM412.528 738.309c-19.605-22.622-36.194-49.767-48.259-76.913-22.622 3.016-43.735 6.032-63.34 9.049 31.67 30.162 70.881 52.784 111.599 67.865zM273.783 640.283c25.638-4.524 51.275-9.049 78.421-12.065-16.589-52.784-25.638-107.075-27.146-162.875h-117.632c3.016 63.34 27.146 125.172 66.356 174.94zM207.427 430.657h117.632c1.508-55.8 10.557-110.091 27.146-162.875-27.146-3.016-54.292-7.541-78.421-12.065-39.211 48.259-63.34 110.091-66.356 174.94zM300.929 225.555c21.113 3.016 42.227 6.032 63.34 9.049 12.065-28.654 27.146-54.292 48.259-76.913-40.719 13.573-79.929 36.194-111.599 67.865zM495.474 141.102c-36.194 9.049-69.373 43.735-93.502 96.518 30.162 3.016 61.832 4.524 93.502 4.524v-101.043zM495.474 276.831c-36.194 0-72.389-1.508-107.075-6.032-18.097 51.275-27.146 105.567-28.654 159.859h135.729v-153.826zM495.474 463.835h-135.729c1.508 54.292 10.557 108.583 28.654 159.859 34.686-3.016 70.881-4.524 107.075-6.032v-153.826zM495.474 652.348c-31.67 0-63.34 1.508-93.502 4.524 24.13 51.275 57.308 87.47 93.502 96.518v-101.043zM816.699 463.835h-117.632c-1.508 55.8-10.557 110.091-27.146 162.875 27.146 3.016 54.292 7.541 78.421 12.065 39.211-48.259 63.34-110.091 66.356-174.94zM723.197 668.937c-21.113-3.016-42.227-6.032-63.34-9.049-12.065 28.654-27.146 54.292-48.259 76.913 40.719-13.573 79.929-36.194 111.599-67.865zM528.652 753.39c36.194-9.049 69.373-43.735 93.502-96.518-30.162-3.016-61.832-4.524-93.502-4.524v101.043zM528.652 617.661c36.194 0 72.389 1.508 107.075 6.032 18.097-51.275 27.146-105.567 28.654-159.859h-135.729v153.826zM528.652 430.657h135.729c-1.508-54.292-10.557-108.583-28.654-159.859-34.686 3.016-70.881 4.524-107.075 6.032v153.826zM528.652 141.102v99.535c31.67 0 63.34-1.508 93.502-4.524-24.13-49.767-57.308-85.962-93.502-95.010zM611.598 156.183c19.605 22.622 36.194 49.767 48.259 76.913 22.622-3.016 43.735-6.032 63.34-9.049-31.67-30.162-70.881-52.784-111.599-67.865zM750.343 254.209c-25.638 4.524-51.275 9.049-78.421 12.065 16.589 52.784 25.638 107.075 27.146 162.875h117.632c-3.016-63.34-27.146-125.172-66.356-174.94z" />
<glyph unicode="&#xe90c;" d="M513.419 600.567c-46.834 0-85.154-38.319-85.154-85.154s38.319-85.154 85.154-85.154 85.154 38.319 85.154 85.154-38.319 85.154-85.154 85.154zM513.419 464.321c-28.385 0-51.092 22.708-51.092 51.092s22.708 51.092 51.092 51.092 51.092-22.708 51.092-51.092c0-28.385-22.708-51.092-51.092-51.092zM676.63 421.744c2.838 5.677 2.838 11.354 0 17.031l-12.773 22.708c1.419 2.838 1.419 5.677 2.838 9.935l24.127 9.935c5.677 2.838 9.935 8.515 9.935 15.611v38.319c0 7.096-4.258 12.773-9.935 15.611l-24.127 9.935c-1.419 2.838-1.419 7.096-2.838 9.935l12.773 22.708c2.838 5.677 2.838 11.354 0 17.031-7.096 12.773-15.611 24.127-24.127 34.061-4.258 4.258-9.935 7.096-17.031 5.677l-19.869-4.258v109.28c0 36.9-19.869 70.961-52.511 89.411 25.546 26.965 25.546 70.961-2.838 96.507-26.965 25.546-70.961 25.546-96.507-2.838-25.546-26.965-25.546-68.123 0-93.669-32.642-18.45-52.511-52.511-52.511-89.411v-109.28l-19.869 4.258c-5.677 1.419-12.773 0-17.031-5.677-9.935-9.935-17.031-21.288-24.127-34.061-2.838-5.677-2.838-11.354 0-17.031l12.773-22.708c-1.419-2.838-1.419-5.677-2.838-9.935l-24.127-9.935c-5.677-2.838-9.935-8.515-9.935-15.611v-38.319c0-7.096 4.258-12.773 9.935-15.611l24.127-9.935c1.419-2.838 1.419-5.677 2.838-9.935l-12.773-22.708c-2.838-5.677-2.838-11.354 0-17.031 7.096-12.773 15.611-24.127 24.127-34.061 4.258-4.258 9.935-7.096 17.031-5.677l24.127 5.677c2.838-1.419 4.258-4.258 7.096-5.677l2.838-25.546c0-5.677 4.258-11.354 9.935-14.192 12.773-5.677 25.546-9.935 39.738-12.773 5.677-1.419 12.773 1.419 17.031 5.677l17.031 19.869h8.515l17.031-19.869c4.258-4.258 9.935-7.096 17.031-5.677 14.192 2.838 26.965 7.096 39.738 12.773 5.677 2.838 9.935 8.515 9.935 14.192l2.838 25.546c2.838 1.419 5.677 4.258 7.096 5.677l24.127-5.677c5.677-1.419 12.773 0 17.031 5.677 8.515 9.935 17.031 21.288 24.127 34.061zM513.419 924.15c18.45 0 34.061-15.611 34.061-34.061s-15.611-34.061-34.061-34.061c-18.45 0-34.061 15.611-34.061 34.061s15.611 34.061 34.061 34.061zM513.419 821.966c38.319 0 68.123-29.804 68.123-68.123v-61.027c-9.935 4.258-19.869 7.096-29.804 9.935-5.677 1.419-12.773-1.419-17.031-5.677l-17.031-19.869h-8.515l-17.031 19.869c-4.258 4.258-9.935 7.096-17.031 5.677-9.935-2.838-19.869-5.677-29.804-9.935v61.027c0 38.319 29.804 68.123 68.123 68.123zM629.796 450.129l12.773-21.288c-2.838-4.258-5.677-8.515-8.515-12.773l-22.708 5.677c-5.677 1.419-11.354 0-15.611-4.258-5.677-4.258-11.354-8.515-17.031-12.773-4.258-2.838-7.096-7.096-8.515-12.773l-2.838-24.127c-4.258-1.419-8.515-2.838-14.192-4.258l-14.192 18.45c-2.838 4.258-8.515 5.677-12.773 5.677h-24.127c-4.258 0-9.935-2.838-12.773-5.677l-15.611-18.45c-4.258 1.419-8.515 2.838-14.192 4.258l-2.838 25.546c0 5.677-2.838 9.935-8.515 12.773-5.677 4.258-11.354 8.515-17.031 12.773-4.258 4.258-9.935 5.677-15.611 4.258l-22.708-5.677c-2.838 4.258-5.677 8.515-8.515 12.773l12.773 21.288c2.838 4.258 2.838 9.935 1.419 15.611-2.838 7.096-4.258 14.192-7.096 19.869-1.419 5.677-4.258 9.935-9.935 11.354l-21.288 9.935v15.611l21.288 9.935c5.677 2.838 8.515 7.096 9.935 11.354 1.419 7.096 4.258 14.192 7.096 21.288 1.419 4.258 1.419 9.935-1.419 15.611l-11.354 19.869c2.838 4.258 5.677 8.515 8.515 12.773l22.708-5.677c5.677-1.419 11.354 0 15.611 4.258 5.677 4.258 11.354 8.515 17.031 12.773 4.258 2.838 7.096 7.096 8.515 12.773l2.838 24.127c4.258 1.419 8.515 2.838 14.192 4.258l15.611-18.45c2.838-4.258 8.515-5.677 12.773-5.677h24.127c4.258 0 9.935 2.838 12.773 5.677l15.611 18.45c4.258-1.419 8.515-2.838 14.192-4.258v-25.546c0-5.677 2.838-9.935 8.515-12.773 5.677-4.258 11.354-8.515 17.031-12.773 4.258-4.258 9.935-5.677 15.611-4.258l22.708 5.677c2.838-4.258 5.677-8.515 8.515-12.773l-12.773-19.869c-2.838-4.258-2.838-9.935-1.419-15.611 2.838-7.096 4.258-14.192 7.096-19.869 1.419-5.677 4.258-9.935 9.935-11.354l21.288-9.935v-17.031l-21.288-9.935c-4.258-2.838-8.515-7.096-9.935-11.354-1.419-7.096-4.258-14.192-7.096-19.869-1.419-4.258-1.419-9.935 1.419-15.611zM837.003 208.86c-46.834 0-85.154-38.319-85.154-85.154s38.319-85.154 85.154-85.154 85.154 38.319 85.154 85.154c0 46.834-38.319 85.154-85.154 85.154zM837.003 72.615c-28.385 0-51.092 22.708-51.092 51.092s22.708 51.092 51.092 51.092 51.092-22.708 51.092-51.092c0-28.385-22.708-51.092-51.092-51.092zM1012.987 159.187l-22.708 9.935c-1.419 2.838-1.419 7.096-2.838 9.935l12.773 22.708c2.838 5.677 2.838 11.354 0 17.031-7.096 12.773-15.611 24.127-24.127 34.061-4.258 4.258-9.935 7.096-17.031 5.677l-19.869-5.677v109.28c0 36.9-19.869 70.961-52.511 89.411 25.546 26.965 25.546 70.961-2.838 96.507-26.965 25.546-70.961 25.546-96.507-2.838-25.546-26.965-25.546-68.123 0-93.669-32.642-18.45-52.511-52.511-52.511-89.411v-109.28l-19.869 4.258c-5.677 1.419-12.773 0-17.031-5.677-9.935-9.935-17.031-21.288-24.127-34.061-2.838-5.677-2.838-11.354 0-17.031l12.773-22.708c-1.419-2.838-1.419-5.677-2.838-9.935l-24.127-9.935c-5.677-2.838-9.935-8.515-9.935-15.611v-38.319c0-7.096 4.258-12.773 9.935-15.611l24.127-9.935c1.419-2.838 1.419-5.677 2.838-9.935l-12.773-22.708c-2.838-5.677-2.838-11.354 0-17.031 7.096-12.773 15.611-24.127 24.127-34.061 4.258-4.258 9.935-7.096 17.031-5.677l24.127 5.677c2.838-1.419 4.258-4.258 7.096-5.677l2.838-25.546c0-5.677 4.258-11.354 9.935-14.192 12.773-5.677 25.546-9.935 39.738-12.773 5.677-1.419 12.773 1.419 17.031 5.677l17.031 19.869h8.515l17.031-19.869c4.258-4.258 9.935-7.096 17.031-5.677 14.192 2.838 26.965 7.096 39.738 12.773 5.677 2.838 9.935 8.515 9.935 14.192l2.838 25.546c2.838 1.419 5.677 4.258 7.096 5.677l24.127-5.677c5.677-1.419 12.773 0 17.031 5.677 9.935 9.935 17.031 21.288 24.127 34.061 2.838 5.677 2.838 11.354 0 17.031l-14.192 24.127c1.419 2.838 1.419 5.677 2.838 9.935l24.127 9.935c5.677 2.838 9.935 8.515 9.935 15.611v38.319c0 7.096-4.258 12.773-9.935 15.611zM837.003 532.444c18.45 0 34.061-15.611 34.061-34.061s-15.611-34.061-34.061-34.061-34.061 15.611-34.061 34.061 15.611 34.061 34.061 34.061zM837.003 430.26c38.319 0 68.123-29.804 68.123-68.123v-61.027c-9.935 4.258-19.869 7.096-29.804 9.935-5.677 1.419-12.773-1.419-17.031-5.677l-17.031-19.869h-8.515l-17.031 19.869c-4.258 4.258-9.935 7.096-17.031 5.677-9.935-2.838-19.869-5.677-29.804-9.935v61.027c0 38.319 31.223 68.123 68.123 68.123zM988.86 115.191l-21.288-8.515c-4.258-2.838-8.515-7.096-9.935-11.354-1.419-7.096-4.258-14.192-7.096-21.288-1.419-4.258-1.419-9.935 1.419-15.611l12.773-21.288c-2.838-4.258-5.677-8.515-8.515-12.773l-22.708 5.677c-5.677 1.419-11.354 0-15.611-4.258-5.677-4.258-11.354-8.515-17.031-12.773-4.258-2.838-7.096-7.096-8.515-12.773l-2.838-24.127c-4.258-1.419-8.515-2.838-14.192-4.258l-15.611 18.45c-2.838 4.258-8.515 5.677-12.773 5.677h-21.288c-4.258 0-9.935-2.838-12.773-5.677l-15.611-18.45c-4.258 1.419-8.515 2.838-14.192 4.258l-2.838 24.127c0 5.677-2.838 9.935-8.515 12.773-5.677 4.258-11.354 8.515-17.031 12.773-4.258 4.258-9.935 5.677-15.611 4.258l-22.708-5.677c-2.838 4.258-5.677 8.515-8.515 12.773l12.773 21.288c2.838 4.258 2.838 9.935 1.419 15.611-2.838 7.096-4.258 14.192-7.096 19.869-1.419 5.677-4.258 9.935-9.935 11.354l-21.288 11.354v15.611l21.288 9.935c5.677 2.838 8.515 7.096 9.935 11.354 1.419 7.096 4.258 14.192 7.096 21.288 1.419 4.258 1.419 9.935-1.419 15.611l-12.773 21.288c2.838 4.258 5.677 8.515 8.515 12.773l22.708-5.677c5.677-1.419 11.354 0 15.611 4.258 5.677 4.258 11.354 8.515 17.031 12.773 4.258 2.838 7.096 7.096 8.515 12.773l2.838 24.127c4.258 1.419 8.515 2.838 14.192 4.258l15.611-18.45c2.838-4.258 8.515-5.677 12.773-5.677h24.127c4.258 0 9.935 2.838 12.773 5.677l15.611 18.45c4.258-1.419 8.515-2.838 14.192-4.258l2.838-24.127c0-5.677 2.838-9.935 8.515-12.773 5.677-4.258 11.354-8.515 17.031-12.773 4.258-4.258 9.935-5.677 15.611-4.258l22.708 5.677c2.838-4.258 5.677-8.515 8.515-12.773l-14.192-22.708c-2.838-4.258-2.838-9.935-1.419-15.611 2.838-7.096 4.258-14.192 7.096-21.288 1.419-5.677 4.258-9.935 9.935-11.354l21.288-9.935-1.419-15.611zM189.836 208.86c-46.834 0-85.154-38.319-85.154-85.154s38.319-85.154 85.154-85.154 85.154 38.319 85.154 85.154c0 46.834-38.319 85.154-85.154 85.154zM189.836 72.615c-28.385 0-51.092 22.708-51.092 51.092s22.708 51.092 51.092 51.092 51.092-22.708 51.092-51.092c0-28.385-22.708-51.092-51.092-51.092zM365.82 159.187l-24.127 9.935c-1.419 2.838-1.419 7.096-2.838 9.935l12.773 22.708c2.838 5.677 2.838 11.354 0 17.031-7.096 12.773-15.611 24.127-24.127 34.061-4.258 4.258-9.935 7.096-17.031 5.677l-19.869-4.258v109.28c0 36.9-19.869 70.961-52.511 89.411 25.546 26.965 25.546 70.961-2.838 96.507-26.965 25.546-70.961 25.546-96.507-2.838-25.546-26.965-25.546-68.123 0-93.669-32.642-18.45-52.511-52.511-52.511-89.411v-109.28l-19.869 4.258c-5.677 1.419-12.773 0-17.031-5.677-9.935-9.935-17.031-21.288-24.127-34.061-2.838-5.677-2.838-11.354 0-17.031l12.773-22.708c-1.419-2.838-1.419-5.677-2.838-9.935l-24.127-9.935c-5.677-2.838-9.935-8.515-9.935-15.611v-38.319c0-7.096 4.258-12.773 9.935-15.611l24.127-9.935c1.419-2.838 1.419-7.096 2.838-9.935l-12.773-22.708c-2.838-5.677-2.838-11.354 0-17.031 7.096-12.773 15.611-24.127 24.127-34.061 4.258-4.258 9.935-7.096 17.031-5.677l24.127 5.677c2.838-1.419 4.258-4.258 7.096-5.677l2.838-25.546c0-5.677 4.258-11.354 9.935-14.192 12.773-5.677 25.546-9.935 39.738-12.773 5.677-1.419 12.773 1.419 17.031 5.677l17.031 19.869h8.515l17.031-19.869c4.258-4.258 9.935-7.096 17.031-5.677 14.192 2.838 26.965 7.096 39.738 12.773 5.677 2.838 9.935 8.515 9.935 14.192l2.838 25.546c2.838 1.419 5.677 4.258 7.096 5.677l24.127-5.677c5.677-1.419 12.773 0 17.031 5.677 9.935 9.935 17.031 21.288 24.127 34.061 2.838 5.677 2.838 11.354 0 17.031l-12.773 22.708c1.419 2.838 1.419 5.677 2.838 9.935l24.127 9.935c5.677 2.838 9.935 8.515 9.935 15.611v38.319c0 7.096-4.258 12.773-9.935 15.611zM189.836 532.444c18.45 0 34.061-15.611 34.061-34.061s-15.611-34.061-34.061-34.061-34.061 15.611-34.061 34.061c0 18.45 15.611 34.061 34.061 34.061zM189.836 430.26c38.319 0 68.123-29.804 68.123-68.123v-61.027c-9.935 4.258-19.869 7.096-29.804 9.935-5.677 1.419-12.773-1.419-17.031-5.677l-17.031-19.869h-8.515l-17.031 19.869c-4.258 4.258-9.935 7.096-17.031 5.677-9.935-2.838-19.869-5.677-29.804-9.935v61.027c0 38.319 29.804 68.123 68.123 68.123zM341.693 115.191v0l-21.288-9.935c-4.258-2.838-8.515-7.096-9.935-11.354-1.419-7.096-4.258-14.192-7.096-21.288-1.419-4.258-1.419-9.935 1.419-15.611l12.773-21.288c-2.838-4.258-5.677-8.515-8.515-12.773l-22.708 8.515c-5.677 1.419-11.354 0-15.611-4.258-5.677-4.258-11.354-8.515-17.031-12.773-4.258-2.838-7.096-7.096-8.515-12.773l-1.419-24.127c-4.258-1.419-8.515-2.838-14.192-4.258l-15.611 18.45c-2.838 4.258-8.515 5.677-12.773 5.677h-24.127c-4.258 0-9.935-2.838-12.773-5.677l-15.611-18.45c-4.258 1.419-8.515 2.838-14.192 4.258l-2.838 24.127c0 5.677-2.838 9.935-8.515 12.773-5.677 4.258-11.354 8.515-17.031 12.773-4.258 4.258-9.935 5.677-15.611 4.258l-22.708-5.677c-2.838 4.258-5.677 8.515-8.515 12.773l12.773 21.288c2.838 4.258 2.838 9.935 1.419 15.611-2.838 7.096-4.258 14.192-7.096 19.869-1.419 5.677-4.258 9.935-9.935 11.354l-21.288 9.935v17.031l21.288 9.935c4.258 2.838 8.515 7.096 9.935 11.354 1.419 7.096 4.258 14.192 7.096 21.288 1.419 4.258 1.419 9.935-1.419 15.611l-12.773 21.288c2.838 4.258 5.677 8.515 8.515 12.773l22.708-5.677c5.677-1.419 11.354 0 15.611 4.258 5.677 4.258 11.354 8.515 17.031 12.773 4.258 2.838 7.096 7.096 8.515 12.773l2.838 24.127c4.258 1.419 8.515 2.838 14.192 4.258l15.611-18.45c2.838-4.258 8.515-5.677 12.773-5.677h24.127c4.258 0 9.935 2.838 12.773 5.677l15.611 18.45c4.258-1.419 8.515-2.838 14.192-4.258l2.838-24.127c0-5.677 2.838-9.935 8.515-12.773 5.677-4.258 11.354-8.515 17.031-12.773 4.258-4.258 9.935-5.677 15.611-4.258l22.708 5.677c2.838-4.258 5.677-8.515 8.515-12.773l-12.773-21.288c-2.838-4.258-2.838-9.935-1.419-15.611 2.838-7.096 4.258-14.192 7.096-21.288 1.419-5.677 4.258-9.935 9.935-11.354l21.288-9.935-1.419-18.45z" />
<glyph unicode="&#xe90d;" d="M99.005 610.501l31.223-14.192c45.415 93.669 122.053 167.469 218.561 207.207l-12.773 31.223c-105.023-43.996-188.757-123.473-237.011-224.238zM387.108 4.492l-9.935-32.642c92.25-28.385 190.176-26.965 281.007 2.838l-11.354 32.642c-83.734-28.385-174.565-29.804-259.718-2.838zM687.984 836.158l-12.773-31.223c99.346-41.158 178.823-116.377 224.238-214.303l31.223 14.192c-49.673 105.023-136.246 187.338-242.688 231.334z" />
<glyph unicode="&#xe90e;" d="M513.417 600.567c-46.834 0-85.154-38.319-85.154-85.154s38.319-85.154 85.154-85.154c46.834 0 85.154 38.319 85.154 85.154s-38.319 85.154-85.154 85.154zM513.417 464.321c-28.385 0-51.092 22.708-51.092 51.092s22.708 51.092 51.092 51.092c28.385 0 51.092-22.708 51.092-51.092s-22.708-51.092-51.092-51.092zM676.628 421.744c2.838 5.677 2.838 11.354 0 17.031l-12.773 22.708c1.419 2.838 1.419 5.677 2.838 9.935l24.127 9.935c5.677 2.838 9.935 8.515 9.935 15.611v38.319c0 7.096-4.258 12.773-9.935 15.611l-24.127 9.935c-1.419 2.838-1.419 7.096-2.838 9.935l12.773 22.708c2.838 5.677 2.838 11.354 0 17.031-7.096 12.773-15.611 24.127-24.127 34.061-4.258 4.258-9.935 7.096-17.031 5.677l-19.869-4.258v109.28c0 36.9-19.869 70.961-52.511 89.411 25.546 26.965 25.546 70.961-2.838 96.507-26.965 25.546-70.961 25.546-96.507-2.838-25.546-26.965-25.546-68.123 0-93.669-32.642-18.45-52.511-52.511-52.511-89.411v-109.28l-19.869 4.258c-5.677 1.419-12.773 0-17.031-5.677-9.935-9.935-17.031-21.288-24.127-34.061-2.838-5.677-2.838-11.354 0-17.031l12.773-22.708c-1.419-2.838-1.419-5.677-2.838-9.935l-24.127-9.935c-5.677-2.838-9.935-8.515-9.935-15.611v-38.319c0-7.096 4.258-12.773 9.935-15.611l24.127-9.935c1.419-2.838 1.419-5.677 2.838-9.935l-12.773-22.708c-2.838-5.677-2.838-11.354 0-17.031 7.096-12.773 15.611-24.127 24.127-34.061 4.258-4.258 9.935-7.096 17.031-5.677l24.127 5.677c2.838-1.419 4.258-4.258 7.096-5.677l2.838-25.546c0-5.677 4.258-11.354 9.935-14.192 12.773-5.677 25.546-9.935 39.738-12.773 5.677-1.419 12.773 1.419 17.031 5.677l17.031 19.869h8.515l17.031-19.869c4.258-4.258 9.935-7.096 17.031-5.677 14.192 2.838 26.965 7.096 39.738 12.773 5.677 2.838 9.935 8.515 9.935 14.192l2.838 25.546c2.838 1.419 5.677 4.258 7.096 5.677l24.127-5.677c5.677-1.419 12.773 0 17.031 5.677 8.515 9.935 17.031 21.288 24.127 34.061zM513.417 924.15c18.45 0 34.061-15.611 34.061-34.061s-15.611-34.061-34.061-34.061c-18.45 0-34.061 15.611-34.061 34.061s15.611 34.061 34.061 34.061zM513.417 821.966c38.319 0 68.123-29.804 68.123-68.123v-61.027c-9.935 4.258-19.869 7.096-29.804 9.935-5.677 1.419-12.773-1.419-17.031-5.677l-17.031-19.869h-8.515l-17.031 19.869c-4.258 4.258-9.935 7.096-17.031 5.677-9.935-2.838-19.869-5.677-29.804-9.935v61.027c0 38.319 29.804 68.123 68.123 68.123zM629.794 450.129l12.773-21.288c-2.838-4.258-5.677-8.515-8.515-12.773l-22.708 5.677c-5.677 1.419-11.354 0-15.611-4.258-5.677-4.258-11.354-8.515-17.031-12.773-4.258-2.838-7.096-7.096-8.515-12.773l-2.838-24.127c-4.258-1.419-8.515-2.838-14.192-4.258l-14.192 18.45c-2.838 4.258-8.515 5.677-12.773 5.677h-24.127c-4.258 0-9.935-2.838-12.773-5.677l-15.611-18.45c-4.258 1.419-8.515 2.838-14.192 4.258l-2.838 25.546c0 5.677-2.838 9.935-8.515 12.773-5.677 4.258-11.354 8.515-17.031 12.773-4.258 4.258-9.935 5.677-15.611 4.258l-22.708-5.677c-2.838 4.258-5.677 8.515-8.515 12.773l12.773 21.288c2.838 4.258 2.838 9.935 1.419 15.611-2.838 7.096-4.258 14.192-7.096 19.869-1.419 5.677-4.258 9.935-9.935 11.354l-21.288 9.935v15.611l21.288 9.935c5.677 2.838 8.515 7.096 9.935 11.354 1.419 7.096 4.258 14.192 7.096 21.288 1.419 4.258 1.419 9.935-1.419 15.611l-11.354 19.869c2.838 4.258 5.677 8.515 8.515 12.773l22.708-5.677c5.677-1.419 11.354 0 15.611 4.258 5.677 4.258 11.354 8.515 17.031 12.773 4.258 2.838 7.096 7.096 8.515 12.773l2.838 24.127c4.258 1.419 8.515 2.838 14.192 4.258l15.611-18.45c2.838-4.258 8.515-5.677 12.773-5.677h24.127c4.258 0 9.935 2.838 12.773 5.677l15.611 18.45c4.258-1.419 8.515-2.838 14.192-4.258v-25.546c0-5.677 2.838-9.935 8.515-12.773 5.677-4.258 11.354-8.515 17.031-12.773 4.258-4.258 9.935-5.677 15.611-4.258l22.708 5.677c2.838-4.258 5.677-8.515 8.515-12.773l-12.773-19.869c-2.838-4.258-2.838-9.935-1.419-15.611 2.838-7.096 4.258-14.192 7.096-19.869 1.419-5.677 4.258-9.935 9.935-11.354l21.288-9.935v-17.031l-21.288-9.935c-4.258-2.838-8.515-7.096-9.935-11.354-1.419-7.096-4.258-14.192-7.096-19.869-1.419-4.258-1.419-9.935 1.419-15.611zM837.001 208.86c-46.834 0-85.154-38.319-85.154-85.154s38.319-85.154 85.154-85.154 85.154 38.319 85.154 85.154c0 46.834-38.319 85.154-85.154 85.154zM837.001 72.615c-28.385 0-51.092 22.708-51.092 51.092s22.708 51.092 51.092 51.092c28.385 0 51.092-22.708 51.092-51.092s-22.708-51.092-51.092-51.092zM1012.985 159.187l-22.708 9.935c-1.419 2.838-1.419 7.096-2.838 9.935l12.773 22.708c2.838 5.677 2.838 11.354 0 17.031-7.096 12.773-15.611 24.127-24.127 34.061-4.258 4.258-9.935 7.096-17.031 5.677l-19.869-5.677v109.28c0 36.9-19.869 70.961-52.511 89.411 25.546 26.965 25.546 70.961-2.838 96.507-26.965 25.546-70.961 25.546-96.507-2.838-25.546-26.965-25.546-68.123 0-93.669-32.642-18.45-52.511-52.511-52.511-89.411v-109.28l-19.869 4.258c-5.677 1.419-12.773 0-17.031-5.677-9.935-9.935-17.031-21.288-24.127-34.061-2.838-5.677-2.838-11.354 0-17.031l12.773-22.708c-1.419-2.838-1.419-5.677-2.838-9.935l-24.127-9.935c-5.677-2.838-9.935-8.515-9.935-15.611v-38.319c0-7.096 4.258-12.773 9.935-15.611l24.127-9.935c1.419-2.838 1.419-5.677 2.838-9.935l-12.773-22.708c-2.838-5.677-2.838-11.354 0-17.031 7.096-12.773 15.611-24.127 24.127-34.061 4.258-4.258 9.935-7.096 17.031-5.677l24.127 5.677c2.838-1.419 4.258-4.258 7.096-5.677l2.838-25.546c0-5.677 4.258-11.354 9.935-14.192 12.773-5.677 25.546-9.935 39.738-12.773 5.677-1.419 12.773 1.419 17.031 5.677l17.031 19.869h8.515l17.031-19.869c4.258-4.258 9.935-7.096 17.031-5.677 14.192 2.838 26.965 7.096 39.738 12.773 5.677 2.838 9.935 8.515 9.935 14.192l2.838 25.546c2.838 1.419 5.677 4.258 7.096 5.677l24.127-5.677c5.677-1.419 12.773 0 17.031 5.677 9.935 9.935 17.031 21.288 24.127 34.061 2.838 5.677 2.838 11.354 0 17.031l-14.192 24.127c1.419 2.838 1.419 5.677 2.838 9.935l24.127 9.935c5.677 2.838 9.935 8.515 9.935 15.611v38.319c0 7.096-4.258 12.773-9.935 15.611zM837.001 532.444c18.45 0 34.061-15.611 34.061-34.061s-15.611-34.061-34.061-34.061c-18.45 0-34.061 15.611-34.061 34.061s15.611 34.061 34.061 34.061zM837.001 430.26c38.319 0 68.123-29.804 68.123-68.123v-61.027c-9.935 4.258-19.869 7.096-29.804 9.935-5.677 1.419-12.773-1.419-17.031-5.677l-17.031-19.869h-8.515l-17.031 19.869c-4.258 4.258-9.935 7.096-17.031 5.677-9.935-2.838-19.869-5.677-29.804-9.935v61.027c0 38.319 31.223 68.123 68.123 68.123zM988.858 115.191l-21.288-8.515c-4.258-2.838-8.515-7.096-9.935-11.354-1.419-7.096-4.258-14.192-7.096-21.288-1.419-4.258-1.419-9.935 1.419-15.611l12.773-21.288c-2.838-4.258-5.677-8.515-8.515-12.773l-22.708 5.677c-5.677 1.419-11.354 0-15.611-4.258-5.677-4.258-11.354-8.515-17.031-12.773-4.258-2.838-7.096-7.096-8.515-12.773l-2.838-24.127c-4.258-1.419-8.515-2.838-14.192-4.258l-15.611 18.45c-2.838 4.258-8.515 5.677-12.773 5.677h-21.288c-4.258 0-9.935-2.838-12.773-5.677l-15.611-18.45c-4.258 1.419-8.515 2.838-14.192 4.258l-2.838 24.127c0 5.677-2.838 9.935-8.515 12.773-5.677 4.258-11.354 8.515-17.031 12.773-4.258 4.258-9.935 5.677-15.611 4.258l-22.708-5.677c-2.838 4.258-5.677 8.515-8.515 12.773l12.773 21.288c2.838 4.258 2.838 9.935 1.419 15.611-2.838 7.096-4.258 14.192-7.096 19.869-1.419 5.677-4.258 9.935-9.935 11.354l-21.288 11.354v15.611l21.288 9.935c5.677 2.838 8.515 7.096 9.935 11.354 1.419 7.096 4.258 14.192 7.096 21.288 1.419 4.258 1.419 9.935-1.419 15.611l-12.773 21.288c2.838 4.258 5.677 8.515 8.515 12.773l22.708-5.677c5.677-1.419 11.354 0 15.611 4.258 5.677 4.258 11.354 8.515 17.031 12.773 4.258 2.838 7.096 7.096 8.515 12.773l2.838 24.127c4.258 1.419 8.515 2.838 14.192 4.258l15.611-18.45c2.838-4.258 8.515-5.677 12.773-5.677h24.127c4.258 0 9.935 2.838 12.773 5.677l15.611 18.45c4.258-1.419 8.515-2.838 14.192-4.258l2.838-24.127c0-5.677 2.838-9.935 8.515-12.773 5.677-4.258 11.354-8.515 17.031-12.773 4.258-4.258 9.935-5.677 15.611-4.258l22.708 5.677c2.838-4.258 5.677-8.515 8.515-12.773l-14.192-22.708c-2.838-4.258-2.838-9.935-1.419-15.611 2.838-7.096 4.258-14.192 7.096-21.288 1.419-5.677 4.258-9.935 9.935-11.354l21.288-9.935v-15.611zM189.833 208.86c-46.834 0-85.154-38.319-85.154-85.154s38.319-85.154 85.154-85.154c46.834 0 85.154 38.319 85.154 85.154s-38.319 85.154-85.154 85.154zM189.833 72.615c-28.385 0-51.092 22.708-51.092 51.092s22.708 51.092 51.092 51.092c28.385 0 51.092-22.708 51.092-51.092s-22.708-51.092-51.092-51.092zM365.817 159.187l-24.127 9.935c-1.419 2.838-1.419 7.096-2.838 9.935l12.773 22.708c2.838 5.677 2.838 11.354 0 17.031-7.096 12.773-15.611 24.127-24.127 34.061-4.258 4.258-9.935 7.096-17.031 5.677l-19.869-4.258v109.28c0 36.9-19.869 70.961-52.511 89.411 25.546 26.965 25.546 70.961-2.838 96.507-26.965 25.546-70.961 25.546-96.507-2.838-25.546-26.965-25.546-68.123 0-93.669-32.642-18.45-52.511-52.511-52.511-89.411v-109.28l-19.869 4.258c-5.677 1.419-12.773 0-17.031-5.677-9.935-9.935-17.031-21.288-24.127-34.061-2.838-5.677-2.838-11.354 0-17.031l12.773-22.708c-1.419-2.838-1.419-5.677-2.838-9.935l-24.127-9.935c-5.677-2.838-9.935-8.515-9.935-15.611v-38.319c0-7.096 4.258-12.773 9.935-15.611l24.127-9.935c1.419-2.838 1.419-7.096 2.838-9.935l-12.773-22.708c-2.838-5.677-2.838-11.354 0-17.031 7.096-12.773 15.611-24.127 24.127-34.061 4.258-4.258 9.935-7.096 17.031-5.677l24.127 5.677c2.838-1.419 4.258-4.258 7.096-5.677l2.838-25.546c0-5.677 4.258-11.354 9.935-14.192 12.773-5.677 25.546-9.935 39.738-12.773 5.677-1.419 12.773 1.419 17.031 5.677l17.031 19.869h8.515l17.031-19.869c4.258-4.258 9.935-7.096 17.031-5.677 14.192 2.838 26.965 7.096 39.738 12.773 5.677 2.838 9.935 8.515 9.935 14.192l2.838 25.546c2.838 1.419 5.677 4.258 7.096 5.677l24.127-5.677c5.677-1.419 12.773 0 17.031 5.677 9.935 9.935 17.031 21.288 24.127 34.061 2.838 5.677 2.838 11.354 0 17.031l-12.773 22.708c1.419 2.838 1.419 5.677 2.838 9.935l24.127 9.935c5.677 2.838 9.935 8.515 9.935 15.611v38.319c0 7.096-4.258 12.773-9.935 15.611zM189.833 532.444c18.45 0 34.061-15.611 34.061-34.061s-15.611-34.061-34.061-34.061c-18.45 0-34.061 15.611-34.061 34.061s15.611 34.061 34.061 34.061zM189.833 430.26c38.319 0 68.123-29.804 68.123-68.123v-61.027c-9.935 4.258-19.869 7.096-29.804 9.935-5.677 1.419-12.773-1.419-17.031-5.677l-17.031-19.869h-8.515l-17.031 19.869c-4.258 4.258-9.935 7.096-17.031 5.677-9.935-2.838-19.869-5.677-29.804-9.935v61.027c0 38.319 29.804 68.123 68.123 68.123zM341.691 115.191v0l-21.288-9.935c-4.258-2.838-8.515-7.096-9.935-11.354-1.419-7.096-4.258-14.192-7.096-21.288-1.419-4.258-1.419-9.935 1.419-15.611l12.773-21.288c-2.838-4.258-5.677-8.515-8.515-12.773l-22.708 8.515c-5.677 1.419-11.354 0-15.611-4.258-5.677-4.258-11.354-8.515-17.031-12.773-4.258-2.838-7.096-7.096-8.515-12.773l-1.419-24.127c-4.258-1.419-8.515-2.838-14.192-4.258l-15.611 18.45c-2.838 4.258-8.515 5.677-12.773 5.677h-24.127c-4.258 0-9.935-2.838-12.773-5.677l-15.611-18.45c-4.258 1.419-8.515 2.838-14.192 4.258l-2.838 24.127c0 5.677-2.838 9.935-8.515 12.773-5.677 4.258-11.354 8.515-17.031 12.773-4.258 4.258-9.935 5.677-15.611 4.258l-22.708-5.677c-2.838 4.258-5.677 8.515-8.515 12.773l12.773 21.288c2.838 4.258 2.838 9.935 1.419 15.611-2.838 7.096-4.258 14.192-7.096 19.869-1.419 5.677-4.258 9.935-9.935 11.354l-21.288 9.935v17.031l21.288 9.935c4.258 2.838 8.515 7.096 9.935 11.354 1.419 7.096 4.258 14.192 7.096 21.288 1.419 4.258 1.419 9.935-1.419 15.611l-12.773 21.288c2.838 4.258 5.677 8.515 8.515 12.773l22.708-5.677c5.677-1.419 11.354 0 15.611 4.258 5.677 4.258 11.354 8.515 17.031 12.773 4.258 2.838 7.096 7.096 8.515 12.773l2.838 24.127c4.258 1.419 8.515 2.838 14.192 4.258l15.611-18.45c2.838-4.258 8.515-5.677 12.773-5.677h24.127c4.258 0 9.935 2.838 12.773 5.677l15.611 18.45c4.258-1.419 8.515-2.838 14.192-4.258l2.838-24.127c0-5.677 2.838-9.935 8.515-12.773 5.677-4.258 11.354-8.515 17.031-12.773 4.258-4.258 9.935-5.677 15.611-4.258l22.708 5.677c2.838-4.258 5.677-8.515 8.515-12.773l-12.773-21.288c-2.838-4.258-2.838-9.935-1.419-15.611 2.838-7.096 4.258-14.192 7.096-21.288 1.419-5.677 4.258-9.935 9.935-11.354l21.288-9.935v-18.45z" />
<glyph unicode="&#xe90f;" d="M99.003 610.501l31.223-14.192c45.415 93.669 122.053 167.469 218.561 207.207l-12.773 31.223c-105.023-43.996-188.757-123.473-237.011-224.238zM387.106 4.492l-9.935-32.642c92.25-28.385 190.176-26.965 281.007 2.838l-11.354 32.642c-83.734-28.385-174.565-29.804-259.718-2.838zM687.982 836.158l-12.773-31.223c99.346-41.158 178.823-116.377 224.238-214.303l31.223 14.192c-49.673 105.023-136.246 187.338-242.688 231.334z" />
<glyph unicode="&#xe910;" d="M993.28 562.103c0 0 0 0 0 0-1.463 2.926-1.463 4.389-2.926 4.389l-198.949 215.040c-1.463 1.463-2.926 2.926-2.926 2.926s0 0 0 0v0c-2.926 1.463-5.851 2.926-8.777 2.926h-563.2c-2.926 0-5.851-1.463-8.777-2.926-1.463-1.463-2.926-1.463-2.926-2.926l-200.411-215.040c0 0-1.463-1.463-1.463-1.463 0-1.463-1.463-1.463-1.463-2.926s0-1.463-1.463-2.926c0-1.463 0-1.463 0-2.926s0-1.463 0-2.926 0-1.463 0-2.926 1.463-1.463 1.463-2.926c0 0 0-1.463 1.463-1.463l481.28-596.846c0 0 0 0 1.463 0 0 0 0-1.463 1.463-1.463 0 0 0 0 0 0v0 0c0 0 0 0 0 0s1.463 0 1.463-1.463c0 0 1.463 0 1.463-1.463v0c0 0 0 0 1.463 0 0 0 0 0 1.463 0 0 0 0 0 0 0 1.463 0 2.926 0 4.389 0v0c1.463 0 2.926 0 4.389 0 0 0 0 0 0 0s0 0 1.463 0c0 0 0 0 1.463 0v0c0 0 1.463 0 1.463 1.463 0 0 1.463 0 1.463 1.463 0 0 0 0 0 0v0 0c0 0 0 0 0 0s0 0 1.463 1.463c0 0 0 0 1.463 0l481.28 596.846c0 1.463 1.463 1.463 1.463 2.926 0 0 0 0 0 1.463s1.463 2.926 1.463 5.851c0 0 0 1.463 0 1.463 0 1.463 0 2.926 0 4.389-1.463-1.463-1.463-1.463-1.463 0zM781.166 743.497l157.989-171.154h-263.314l105.326 171.154zM748.983 753.737l-103.863-168.229-117.029 168.229h220.891zM614.4 572.343h-234.057l117.029 169.691 117.029-169.691zM465.189 753.737l-117.029-168.229-103.863 168.229h220.891zM532.48 28.16l70.217 275.017c1.463 5.851 0 11.703-4.389 16.091s-10.24 5.851-16.091 4.389c-5.851-1.463-10.24-5.851-11.703-11.703l-73.143-285.257-73.143 285.257c-1.463 5.851-5.851 10.24-11.703 11.703s-11.703 0-16.091-4.389c-4.389-4.389-5.851-10.24-4.389-16.091l70.217-275.017-424.229 526.629 174.080 188.709 105.326-171.154h-219.429c-8.777 0-16.091-7.314-16.091-16.091s7.314-16.091 16.091-16.091h235.52l40.96-169.691c1.463-7.314 8.777-13.166 16.091-13.166 1.463 0 2.926 0 4.389 0 4.389 1.463 7.314 4.389 10.24 7.314 2.926 4.389 2.926 8.777 1.463 13.166l-39.497 162.377h256l-39.497-162.377c-1.463-4.389 0-8.777 1.463-13.166 2.926-4.389 5.851-5.851 10.24-7.314 1.463 0 2.926 0 4.389 0 7.314 0 14.629 5.851 16.091 13.166l40.96 169.691h286.72l-411.063-512z" />
<glyph unicode="&#xe911;" d="M229.669 76.434l-54.126 26.331-26.331 54.126c-2.926 5.851-8.777 8.777-14.629 8.777s-11.703-2.926-14.629-8.777l-26.331-54.126-54.126-26.331c-5.851-2.926-8.777-8.777-8.777-14.629s2.926-11.703 8.777-14.629v0l54.126-26.331 26.331-54.126c2.926-5.851 8.777-8.777 14.629-8.777s11.703 2.926 14.629 8.777l26.331 54.126 54.126 26.331c5.851 2.926 8.777 8.777 8.777 14.629s-2.926 11.703-8.777 14.629zM155.063 47.177c-2.926-1.463-5.851-4.389-7.314-7.314l-13.166-29.257-13.166 29.257c-1.463 2.926-4.389 5.851-7.314 7.314l-29.257 13.166 29.257 13.166c2.926 1.463 5.851 4.389 7.314 7.314l13.166 29.257 13.166-29.257c1.463-2.926 4.389-5.851 7.314-7.314l29.257-13.166-29.257-13.166zM1015.223 861.989l-54.126 26.331-26.331 54.126c-2.926 5.851-8.777 8.777-14.629 8.777s-11.703-2.926-14.629-8.777l-26.331-54.126-54.126-26.331c-5.851-2.926-8.777-8.777-8.777-14.629s2.926-11.703 8.777-14.629v0l54.126-26.331 26.331-54.126c2.926-5.851 8.777-8.777 14.629-8.777s11.703 2.926 14.629 8.777l26.331 54.126 54.126 26.331c5.851 2.926 8.777 8.777 8.777 14.629s-2.926 11.703-8.777 14.629zM940.617 832.731c-2.926-1.463-5.851-4.389-7.314-7.314l-13.166-29.257-13.166 29.257c-1.463 2.926-4.389 5.851-7.314 7.314l-29.257 13.166 29.257 13.166c2.926 1.463 5.851 4.389 7.314 7.314l13.166 29.257 13.166-29.257c1.463-2.926 4.389-5.851 7.314-7.314l29.257-13.166-29.257-13.166zM959.634 110.080l-54.126 26.331-26.331 54.126c-2.926 5.851-8.777 8.777-14.629 8.777s-11.703-2.926-14.629-8.777l-26.331-54.126-55.589-26.331c-5.851-2.926-8.777-8.777-8.777-14.629s2.926-11.703 8.777-14.629l54.126-26.331 26.331-54.126c2.926-5.851 8.777-8.777 14.629-8.777s11.703 2.926 14.629 8.777l26.331 54.126 54.126 26.331c5.851 2.926 8.777 8.777 8.777 14.629 1.463 5.851-1.463 11.703-7.314 14.629zM885.029 80.823c-2.926-1.463-5.851-4.389-7.314-7.314l-13.166-29.257-13.166 29.257c-1.463 2.926-4.389 5.851-7.314 7.314l-29.257 13.166 29.257 13.166c2.926 1.463 5.851 4.389 7.314 7.314l13.166 29.257 13.166-29.257c1.463-2.926 4.389-5.851 7.314-7.314l29.257-13.166-29.257-13.166z" />
<glyph unicode="&#xe912;" d="M993.28 562.103c0 0 0 0 0 0-1.463 2.926-1.463 4.389-2.926 4.389l-198.949 215.040c-1.463 1.463-2.926 2.926-2.926 2.926s0 0 0 0v0c-2.926 1.463-5.851 2.926-8.777 2.926h-563.2c-2.926 0-5.851-1.463-8.777-2.926-1.463-1.463-2.926-1.463-2.926-2.926l-200.411-215.040c0 0-1.463-1.463-1.463-1.463 0-1.463-1.463-1.463-1.463-2.926s0-1.463-1.463-2.926c0-1.463 0-1.463 0-2.926s0-1.463 0-2.926 0-1.463 0-2.926 1.463-1.463 1.463-2.926c0 0 0-1.463 1.463-1.463l481.28-596.846c0 0 0 0 1.463 0 0 0 0-1.463 1.463-1.463 0 0 0 0 0 0v0 0c0 0 0 0 0 0s1.463 0 1.463-1.463c0 0 1.463 0 1.463-1.463v0c0 0 0 0 1.463 0 0 0 0 0 1.463 0 0 0 0 0 0 0 1.463 0 2.926 0 4.389 0v0c1.463 0 2.926 0 4.389 0 0 0 0 0 0 0s0 0 1.463 0c0 0 0 0 1.463 0v0c0 0 1.463 0 1.463 1.463 0 0 1.463 0 1.463 1.463 0 0 0 0 0 0v0 0c0 0 0 0 0 0s0 0 1.463 1.463c0 0 0 0 1.463 0l481.28 596.846c0 1.463 1.463 1.463 1.463 2.926 0 0 0 0 0 1.463s1.463 2.926 1.463 5.851c0 0 0 1.463 0 1.463 0 1.463 0 2.926 0 4.389-1.463-1.463-1.463-1.463-1.463 0zM781.166 743.497l157.989-171.154h-263.314l105.326 171.154zM748.983 753.737l-103.863-168.229-117.029 168.229h220.891zM614.4 572.343h-234.057l117.029 169.691 117.029-169.691zM465.189 753.737l-117.029-168.229-103.863 168.229h220.891zM532.48 28.16l70.217 275.017c1.463 5.851 0 11.703-4.389 16.091s-10.24 5.851-16.091 4.389c-5.851-1.463-10.24-5.851-11.703-11.703l-73.143-285.257-73.143 285.257c-1.463 5.851-5.851 10.24-11.703 11.703s-11.703 0-16.091-4.389c-4.389-4.389-5.851-10.24-4.389-16.091l70.217-275.017-424.229 526.629 174.080 188.709 105.326-171.154h-219.429c-8.777 0-16.091-7.314-16.091-16.091s7.314-16.091 16.091-16.091h235.52l40.96-169.691c1.463-7.314 8.777-13.166 16.091-13.166 1.463 0 2.926 0 4.389 0 4.389 1.463 7.314 4.389 10.24 7.314 2.926 4.389 2.926 8.777 1.463 13.166l-39.497 162.377h256l-39.497-162.377c-1.463-4.389 0-8.777 1.463-13.166 2.926-4.389 5.851-5.851 10.24-7.314 1.463 0 2.926 0 4.389 0 7.314 0 14.629 5.851 16.091 13.166l40.96 169.691h286.72l-411.063-512z" />
<glyph unicode="&#xe913;" d="M229.669 76.434l-54.126 26.331-26.331 54.126c-2.926 5.851-8.777 8.777-14.629 8.777s-11.703-2.926-14.629-8.777l-26.331-54.126-54.126-26.331c-5.851-2.926-8.777-8.777-8.777-14.629s2.926-11.703 8.777-14.629v0l54.126-26.331 26.331-54.126c2.926-5.851 8.777-8.777 14.629-8.777s11.703 2.926 14.629 8.777l26.331 54.126 54.126 26.331c5.851 2.926 8.777 8.777 8.777 14.629s-2.926 11.703-8.777 14.629zM155.063 47.177c-2.926-1.463-5.851-4.389-7.314-7.314l-13.166-29.257-13.166 29.257c-1.463 2.926-4.389 5.851-7.314 7.314l-29.257 13.166 29.257 13.166c2.926 1.463 5.851 4.389 7.314 7.314l13.166 29.257 13.166-29.257c1.463-2.926 4.389-5.851 7.314-7.314l29.257-13.166-29.257-13.166zM1015.223 861.989l-54.126 26.331-26.331 54.126c-2.926 5.851-8.777 8.777-14.629 8.777s-11.703-2.926-14.629-8.777l-26.331-54.126-54.126-26.331c-5.851-2.926-8.777-8.777-8.777-14.629s2.926-11.703 8.777-14.629v0l54.126-26.331 26.331-54.126c2.926-5.851 8.777-8.777 14.629-8.777s11.703 2.926 14.629 8.777l26.331 54.126 54.126 26.331c5.851 2.926 8.777 8.777 8.777 14.629s-2.926 11.703-8.777 14.629zM940.617 832.731c-2.926-1.463-5.851-4.389-7.314-7.314l-13.166-29.257-13.166 29.257c-1.463 2.926-4.389 5.851-7.314 7.314l-29.257 13.166 29.257 13.166c2.926 1.463 5.851 4.389 7.314 7.314l13.166 29.257 13.166-29.257c1.463-2.926 4.389-5.851 7.314-7.314l29.257-13.166-29.257-13.166zM959.634 110.080l-54.126 26.331-26.331 54.126c-2.926 5.851-8.777 8.777-14.629 8.777s-11.703-2.926-14.629-8.777l-26.331-54.126-55.589-26.331c-5.851-2.926-8.777-8.777-8.777-14.629s2.926-11.703 8.777-14.629l54.126-26.331 26.331-54.126c2.926-5.851 8.777-8.777 14.629-8.777s11.703 2.926 14.629 8.777l26.331 54.126 54.126 26.331c5.851 2.926 8.777 8.777 8.777 14.629 1.463 5.851-1.463 11.703-7.314 14.629zM885.029 80.823c-2.926-1.463-5.851-4.389-7.314-7.314l-13.166-29.257-13.166 29.257c-1.463 2.926-4.389 5.851-7.314 7.314l-29.257 13.166 29.257 13.166c2.926 1.463 5.851 4.389 7.314 7.314l13.166 29.257 13.166-29.257c1.463-2.926 4.389-5.851 7.314-7.314l29.257-13.166-29.257-13.166z" />
<glyph unicode="&#xe914;" d="M336.251 259.129c42.125-60.179 84.251-112.836 111.332-147.439 4.513-4.513 7.522-9.027 12.036-13.54h-84.251c-9.027 0-16.549-7.522-16.549-16.549s7.522-16.549 16.549-16.549h272.311c9.027 0 16.549 7.522 16.549 16.549s-7.522 16.549-16.549 16.549h-82.746c3.009 4.513 7.522 9.027 12.036 13.54 28.585 34.603 69.206 87.26 111.332 147.439 42.125 57.17 79.737 118.854 112.836 182.042 34.603 69.206 52.657 124.872 52.657 168.502 0 90.269-36.108 177.529-99.296 242.221-4.513 4.513-10.531 6.018-16.549 4.513s-10.531-6.018-12.036-12.036c-1.504-6.018 0-12.036 4.513-16.549 57.17-57.17 90.269-135.403 90.269-218.15 0-37.612-16.549-90.269-48.143-153.457-33.099-61.684-69.206-121.863-109.827-177.529-42.125-58.675-82.746-111.332-111.332-145.935-9.027-10.531-18.054-21.063-24.072-30.090-3.009-3.009-7.522-6.018-13.54-6.018-4.513 0-9.027 1.504-13.54 6.018-7.522 9.027-15.045 18.054-24.072 30.090-27.081 33.099-69.206 85.755-111.332 145.935-40.621 57.17-78.233 115.845-109.827 177.529-33.099 63.188-48.143 115.845-48.143 153.457 0 123.367 73.72 236.203 188.060 284.347 76.729 31.594 162.484 31.594 239.212 0 6.018-3.009 12.036-1.504 16.549 1.504s7.522 9.027 6.018 15.045c0 6.018-4.513 10.531-10.531 13.54-173.015 73.72-373.111-7.522-446.831-182.042-18.054-42.125-27.081-87.26-27.081-133.899 0-43.63 18.054-100.8 52.657-168.502 31.594-61.684 69.206-121.863 111.332-180.538zM1017.781 19.917l-105.314 188.060c-9.027 16.549-27.081 27.081-46.639 27.081h-121.863c-9.027 0-16.549-7.522-16.549-16.549s7.522-16.549 16.549-16.549h121.863c7.522 0 13.54-3.009 16.549-9.027l105.314-188.060c3.009-4.513 3.009-10.531 0-15.045-3.009-6.018-10.531-9.027-16.549-9.027h-917.733c-6.018 0-13.54 3.009-16.549 9.027-3.009 4.513-3.009 10.531 0 15.045l105.314 188.060c3.009 6.018 10.531 9.027 16.549 9.027h121.863c9.027 0 16.549 7.522 16.549 16.549s-7.522 16.549-16.549 16.549h-121.863c-19.558 0-37.612-10.531-46.639-27.081l-105.314-188.060c-9.027-15.045-9.027-34.603 0-49.648 9.027-16.549 27.081-25.576 46.639-25.576h917.733c19.558 0 36.108 9.027 46.639 25.576 7.522 15.045 9.027 34.603 0 49.648z" />
<glyph unicode="&#xe915;" d="M616.085 769.148c-6.018-1.504-10.531-6.018-12.036-12.036s0-12.036 4.513-16.549c46.639-46.639 52.657-118.854 16.549-173.015s-105.314-75.224-165.493-49.648c-60.179 25.576-94.782 88.764-81.242 153.457 12.036 64.693 69.206 109.827 133.899 109.827 9.027 0 16.549 7.522 16.549 16.549s-7.522 16.549-16.549 16.549c-81.242 0-151.953-57.17-166.997-136.908-16.549-79.737 27.081-159.475 102.305-191.069s162.484-4.513 207.618 63.188c45.134 67.702 36.108 157.97-21.063 215.141-6.018 3.009-12.036 6.018-18.054 4.513zM835.739 131.248c9.027 0 16.549 7.522 16.549 16.549s-7.522 16.549-16.549 16.549h-67.702c-3.009 0-6.018-1.504-9.027-3.009l-51.152-34.603c-7.522-4.513-10.531-16.549-4.513-24.072 4.513-7.522 16.549-10.531 24.072-4.513l46.639 31.594h61.684zM886.891 62.042h-136.908c-9.027 0-16.549-7.522-16.549-16.549s7.522-16.549 16.549-16.549h136.908c9.027 0 16.549 7.522 16.549 16.549 1.504 9.027-6.018 16.549-16.549 16.549zM316.693 128.239l-51.152 34.603c-3.009 1.504-6.018 3.009-9.027 3.009h-67.702c-9.027 0-16.549-7.522-16.549-16.549s7.522-16.549 16.549-16.549h63.188l46.639-31.594c3.009-1.504 6.018-3.009 9.027-3.009 7.522 0 13.54 4.513 16.549 12.036 1.504 6.018-1.504 13.54-7.522 18.054zM273.063 62.042h-136.908c-9.027 0-16.549-7.522-16.549-16.549s7.522-16.549 16.549-16.549h136.908c9.027 0 16.549 7.522 16.549 16.549 1.504 9.027-6.018 16.549-16.549 16.549z" />
<glyph unicode="&#xe916;" d="M996.901 169.478l-206.276 137.518c-26.833 16.77-62.051 11.739-80.498-13.416l-60.374-77.144c-8.385-10.062-21.802-13.416-33.541-6.708l-11.739 6.708c-38.572 20.125-85.529 46.957-181.121 142.549s-120.747 142.549-142.549 181.121l-6.708 11.739c-6.708 11.739-3.354 25.156 6.708 33.541l77.144 60.374c25.156 20.125 30.187 55.342 13.416 80.498l-137.518 206.276c-18.447 26.833-53.665 35.218-80.498 18.447l-87.206-51.988c-26.833-16.77-46.957-41.926-55.342-72.113-31.864-114.039-8.385-310.253 281.743-598.705 229.755-229.755 400.813-291.806 518.206-291.806 26.833 0 53.665 3.354 80.498 10.062 30.187 8.385 57.019 28.51 72.113 55.342l51.988 87.206c16.77 26.833 8.385 63.728-18.447 80.498zM985.162 105.75l-51.988-85.529c-11.739-20.125-30.187-33.541-51.988-40.249-105.654-28.51-288.451-5.031-565.164 271.681s-301.868 461.187-271.681 565.164c6.708 21.802 20.125 40.249 40.249 51.988l87.206 51.988c11.739 6.708 26.833 3.354 35.218-8.385l75.467-112.362 63.728-93.914c6.708-11.739 5.031-26.833-5.031-35.218l-80.498-60.374c-23.479-18.447-30.187-50.311-15.093-77.144l6.708-11.739c21.802-40.249 48.634-88.883 147.58-187.829s149.257-125.778 187.829-147.58l11.739-6.708c25.156-15.093 58.697-8.385 77.144 15.093l60.374 77.144c8.385 10.062 23.479 13.416 35.218 5.031l206.276-137.518c11.739-5.031 15.093-20.125 6.708-33.541z" />
<glyph unicode="&#xe917;" d="M513.913 806.755c-10.062 0-16.77-8.385-16.77-16.77 0-10.062 8.385-16.77 16.77-16.77 159.319 0 290.129-129.132 290.129-290.129 0-10.062 8.385-16.77 16.77-16.77 10.062 0 16.77 8.385 16.77 16.77 0 177.767-145.903 321.992-323.669 323.669zM513.913 704.455c-10.062 0-16.77-8.385-16.77-16.77 0-10.062 8.385-16.77 16.77-16.77 103.977 0 187.829-83.852 187.829-187.829 0-10.062 8.385-16.77 16.77-16.77 10.062 0 16.77 8.385 16.77 16.77 0 120.747-98.946 221.37-221.37 221.37zM513.913 602.155c-10.062 0-16.77-8.385-16.77-16.77 0-10.062 8.385-16.77 16.77-16.77 46.957 0 85.529-38.572 85.529-85.529 0-10.062 8.385-16.77 16.77-16.77 10.062 0 16.77 8.385 16.77 16.77 0 65.405-53.665 119.070-119.070 119.070z" />
<glyph unicode="&#xe918;" d="M1021.012 568.483c0 1.593 0 1.593 0 3.186s0 1.593-1.593 3.186c0 1.593-1.593 1.593-1.593 3.186s-1.593 1.593-1.593 3.186c0 0 0 0 0 0l-164.095 127.452v132.232c0 28.677-22.304 50.981-50.981 50.981h-184.806l-73.285 57.354c-17.525 14.338-43.015 14.338-62.133 0l-73.285-57.354h-184.806c-28.677 0-50.981-22.304-50.981-50.981v-132.232l-164.095-127.452c0 0 0 0 0-1.593-1.593 0-1.593-1.593-1.593-3.186s-1.593-1.593-1.593-3.186c0-1.593 0-1.593-1.593-3.186 0-1.593 0-1.593 0-3.186 0 0 0 0 0-1.593v-578.315c0-11.152 3.186-20.711 9.559-30.27 0 0 0 0 0 0s0 0 0 0c9.559-12.745 23.897-20.711 39.829-20.711h917.657c15.932 0 30.27 7.966 39.829 20.711 0 0 0 0 0 0s0 0 0 0c6.373 7.966 9.559 19.118 9.559 30.27l1.593 581.501c0 0 0 0 0 0zM501.643 922.163c6.373 4.779 14.338 4.779 20.711 0l39.829-30.27h-98.776l38.236 30.27zM57.153-27.357l444.49 345.715c6.373 4.779 14.338 4.779 20.711 0l442.897-345.715h-908.098zM987.555-0.274l-446.083 345.715c-17.525 14.338-43.015 14.338-62.133 0l-444.49-345.715v543.266l278.802-216.669c7.966-6.373 17.525-4.779 23.897 3.186s4.779 17.525-3.186 23.897l-281.988 219.855 119.487 92.403v-130.639c0-9.559 7.966-17.525 17.525-17.525s17.525 7.966 17.525 17.525v305.886c0 9.559 7.966 17.525 17.525 17.525h578.315c9.559 0 17.525-7.966 17.525-17.525v-305.886c0-9.559 7.966-17.525 17.525-17.525s17.525 7.966 17.525 17.525v130.639l119.487-92.403-288.361-221.448c-4.779-3.186-7.966-9.559-6.373-15.932s4.779-11.152 11.152-12.745c6.373-1.593 12.745-1.593 17.525 3.186l278.802 216.669v-543.266z" />
<glyph unicode="&#xe919;" d="M715.126 535.026v68.506c0 113.114-90.81 203.924-203.924 203.924s-203.924-90.81-203.924-203.924c0-113.114 90.81-203.924 203.924-203.924 9.559 0 17.525 7.966 17.525 17.525s-7.966 17.525-17.525 17.525c-93.996 0-170.468 76.471-170.468 170.468s76.471 170.468 170.468 170.468c93.996 0 170.468-76.471 170.468-170.468v-68.506c0-19.118-15.932-33.456-33.456-33.456-19.118 0-33.456 15.932-33.456 33.456v68.506c0 9.559-7.966 17.525-17.525 17.525s-17.525-7.966-17.525-17.525c0-38.236-30.27-68.506-68.506-68.506s-68.506 30.27-68.506 68.506c0 38.236 30.27 68.506 68.506 68.506 9.559 0 17.525 7.966 17.525 17.525s-7.966 17.525-17.525 17.525c-46.201 0-86.030-30.27-98.776-73.285-12.745-44.608 6.373-90.81 44.608-114.707s89.217-19.118 122.673 11.152c3.186-36.643 35.049-62.133 71.692-60.54 35.049-1.593 63.726 27.084 63.726 63.726z" />
<glyph unicode="&#xe91a;" glyph-name="11" d="M694.264 357.647l-142.28 106.97v218.093c0 21.809-17.655 39.464-39.464 39.464s-39.464-17.655-39.464-39.464v-237.826c0-12.462 6.231-23.886 15.578-32.195l158.897-118.393c7.27-5.193 15.578-8.308 23.886-8.308 12.462 0 23.886 5.193 32.195 15.578 11.424 18.694 8.308 43.619-9.347 56.081zM512.519 960c-282.483 0-512-229.517-512-512s229.517-512 512-512c282.483 0 510.961 229.517 510.961 512s-229.517 512-510.961 512zM512.519 15.968c-238.864 0-433.071 194.207-433.071 432.032 0 238.864 194.207 432.032 433.071 432.032 237.826 0 432.032-193.168 432.032-432.032 0-237.826-194.207-432.032-432.032-432.032z" />
<glyph unicode="&#xe91b;" glyph-name="12" d="M811.134 619.011v42.365c0 164.295-133.296 298.624-298.624 298.624-164.295 0-298.624-134.329-298.624-298.624v-42.365c-70.264 0-128.129-57.865-128.129-128.129v-426.753c0-70.264 56.831-128.129 128.129-128.129h596.214c70.264 0 128.129 57.865 128.129 128.129v426.753c1.033 70.264-56.831 128.129-127.096 128.129zM300.684 661.376c0 117.796 95.064 212.86 212.86 212.86 116.763 1.033 212.86-95.064 212.86-212.86v-42.365h-425.719v42.365zM853.5 64.129c0-23.766-19.633-42.365-42.365-42.365h-596.214c-23.766 0-42.365 18.599-42.365 42.365v426.753c0 23.766 19.633 42.365 42.365 42.365h596.214c23.766 0 42.365-18.599 42.365-42.365v-426.753zM513.544 469.183c-70.264 0-128.129-57.865-128.129-128.129 0-55.798 36.165-102.297 84.731-119.863v-72.331c0-23.766 18.599-42.365 42.365-42.365s42.365 18.599 42.365 42.365v72.331c49.598 17.566 84.731 64.065 84.731 119.863 1.033 71.298-55.798 128.129-126.063 128.129zM513.544 298.688c-23.766 0-42.365 19.633-42.365 42.365 0 23.766 19.633 42.365 42.365 42.365 23.766 0 42.365-19.633 42.365-42.365s-19.633-42.365-42.365-42.365z" />
<glyph unicode="&#xe91c;" glyph-name="13" d="M512.516 21.677h-382.968c-23.742 0-42.323 19.613-42.323 42.323v42.323c0 134.194 77.419 249.806 189.935 305.548 42.323-30.968 93.935-49.548 150.71-49.548 140.387 0 254.968 114.581 254.968 256v85.677c0 141.419-114.581 256-254.968 256s-256-115.613-256-257.032v-85.677c0-52.645 16.516-102.194 43.355-142.452-126.968-73.29-213.677-210.581-213.677-367.484v-43.355c0-70.194 56.774-128 128-128h382.968c23.742 0 42.323 19.613 42.323 42.323 0 24.774-19.613 43.355-42.323 43.355zM256.516 702.968c0 93.935 76.387 170.323 170.323 170.323s170.323-76.387 170.323-170.323v-85.677c0-93.935-76.387-170.323-170.323-170.323s-170.323 76.387-170.323 170.323v85.677zM980.129 234.323h-170.323v170.323c0 23.742-18.581 42.323-42.323 42.323s-42.323-19.613-42.323-42.323v-170.323h-170.323c-23.742 0-42.323-18.581-42.323-42.323s18.581-42.323 42.323-42.323h170.323v-170.323c0-23.742 18.581-42.323 42.323-42.323s42.323 19.613 42.323 42.323v170.323h170.323c23.742 0 42.323 18.581 42.323 42.323s-19.613 42.323-42.323 42.323z" />
<glyph unicode="&#xe91d;" glyph-name="14" d="M1005.154 497.206l-387.403 413.579c-25.129 27.223-64.916 26.176-90.045-1.047s-24.082-71.198 1.047-97.374l276.417-295.264h-741.301c-35.599 0-63.869-30.364-63.869-69.104 0-37.693 28.27-69.104 63.869-69.104h741.301l-276.417-295.264c-25.129-27.223-25.129-70.151-1.047-97.374 12.564-13.611 29.317-20.941 45.022-20.941s32.458 6.282 45.022 19.894l387.403 413.579c12.564 12.564 18.847 30.364 18.847 49.211s-7.329 36.646-18.847 49.211z" />
<glyph unicode="&#xe91e;" glyph-name="15" d="M652.051-64v141.686c114.851 11.807 197.501 113.778 185.694 227.556-5.367 55.816-34.348 107.338-78.356 141.686 50.449 39.715 79.43 98.751 79.43 163.153 0 106.264-80.503 195.354-186.767 207.161v142.759h-93.384v-139.539h-93.384v139.539h-93.384v-139.539h-186.767v-744.923h186.767v-139.539h93.384v139.539h93.384v-139.539h93.384zM278.517 727.078h349.92c64.403 0 116.998-52.595 116.998-115.925 0-64.403-52.595-115.925-116.998-115.925h-349.92v231.849zM278.517 168.922v231.849h349.92c64.403 0 116.998-52.595 116.998-115.925 0-64.403-52.595-115.925-116.998-115.925h-349.92z" />
<glyph unicode="&#xe91f;" glyph-name="16" d="M179.722 411.429l332.278-475.429 332.278 475.429-332.278 548.571-332.278-548.571zM511.999 102.139l-140.016 199.576 140.016-61.649 140.016 61.649-140.016-199.576zM511.999 343.51l-206.89 90.906 206.89 341.682 206.89-341.682-206.89-90.906z" />
<glyph unicode="&#xe920;" glyph-name="17" d="M1005.404-62.76v126.45h-627.293l55.787 275.215 275.215 107.855-48.349 117.772-197.114-76.862 91.738 447.535-126.45 24.794-107.855-529.356-302.489-119.012 48.349-117.772 225.627 88.019-70.663-345.879h783.496z" />
<glyph unicode="&#xe921;" glyph-name="18" d="M461.138 192.26l-440.118 416.243c-28.026 26.988-28.026 69.547 0 95.497s73.699 25.95 101.725 0l389.255-368.495 389.255 368.495c28.026 25.95 73.699 25.95 101.725 0 28.026-26.988 28.026-69.547 0-95.497l-440.118-416.243c-13.494-13.494-32.178-19.722-50.863-19.722s-36.33 6.228-50.863 19.722z" />
<glyph unicode="&#xe922;" glyph-name="19" d="M512 960c-283.167 0-512-228.833-512-512s228.833-512 512-512 512 228.833 512 512-228.833 512-512 512zM689.633 420.833l-256-159.869c-5.224-3.135-11.494-5.224-16.718-5.224s-10.449 1.045-15.673 4.18c-10.449 5.224-16.718 16.718-16.718 28.212v319.739c0 11.494 6.269 21.943 16.718 28.212 10.449 5.224 22.988 5.224 32.392-1.045l256-159.869c9.404-6.269 14.629-15.673 14.629-27.167s-5.224-20.898-14.629-27.167z" />
<glyph unicode="&#xe923;" glyph-name="20" d="M409.284 90.204c-12.61 0-25.219 4.203-35.727 12.61l-352.016 269.004c-12.61 8.406-18.914 22.067-21.016 36.778s2.102 28.371 12.61 40.981c8.406 12.61 23.117 17.864 37.829 19.965s29.422-2.102 42.032-12.61l311.035-238.531 523.296 569.531c10.508 10.508 23.117 16.813 37.829 17.864 14.711 0 29.422-4.203 39.93-14.711s16.813-22.067 18.914-36.778c0-14.711-4.203-28.371-14.711-38.879l-557.972-607.36c-10.508-11.559-27.321-17.864-42.032-17.864z" />
<glyph unicode="&#xe924;" glyph-name="21" horiz-adv-x="1008" d="M504 859.857l504.003-823.714h-1008.006l504.003 823.714z" />
<glyph unicode="&#xe925;" glyph-name="22" d="M512.518 28.668l-512.518 838.665h1024l-511.482-838.665z" />
<glyph unicode="&#xe926;" glyph-name="23" d="M471.332 500.138v-80.293h80.293v80.293h-80.293zM904.081 879.707h-47.967v80.293h-80.293v-80.293h-527.641v80.293h-80.293v-80.293h-47.967c-65.694 0-119.919-54.224-119.919-119.919v-703.87c0-65.694 54.224-119.919 119.919-119.919h411.894c-28.155 22.941-52.138 50.053-70.908 80.293h-340.986c-21.898 0-39.625 17.727-39.625 39.625v527.641h863.413v-84.464c30.24-19.813 57.352-43.796 80.293-70.908v331.601c0 65.694-54.224 119.919-119.919 119.919zM943.707 663.853h-863.413v95.935c0 21.898 17.727 39.625 39.625 39.625h47.967v-80.293h80.293v80.293h527.641v-80.293h80.293v80.293h47.967c21.898 0 39.625-17.727 39.625-39.625v-95.935zM753.923 476.155c-149.116 0-270.077-120.961-270.077-270.077s120.961-270.077 270.077-270.077 270.077 120.961 270.077 270.077c0 149.116-120.961 270.077-270.077 270.077zM753.923 16.293c-104.277 0-189.784 85.507-189.784 189.784s85.507 189.784 189.784 189.784c104.277 0 189.784-85.507 189.784-189.784s-85.507-189.784-189.784-189.784zM791.462 339.552h-80.293v-174.143h148.073v80.293h-67.78v93.849zM392.081 339.552h-80.293v-80.293h80.293v80.293zM231.495 339.552h-80.293v-80.293h80.293v80.293zM231.495 500.138h-80.293v-80.293h80.293v80.293zM152.244 99.715h80.293v80.293h-80.293v-80.293zM392.081 500.138h-80.293v-80.293h80.293v80.293zM311.788 99.715h80.293v80.293h-80.293v-80.293z" />
<glyph unicode="&#xe927;" glyph-name="24" d="M970.322 348.388c7.226 34.065 10.323 67.097 10.323 99.097 0 62.968-12.387 122.839-37.161 180.645s-57.806 107.355-100.129 148.645c-42.323 41.29-91.871 74.323-149.677 99.097-57.806 25.806-117.677 37.161-181.677 37.161-32 0-66.065-3.097-100.129-10.323-46.452 35.097-98.065 52.645-155.871 52.645-70.194 0-131.097-24.774-180.645-74.323s-75.355-109.419-75.355-179.613c0-57.806 17.548-108.387 53.677-154.839-7.226-34.065-10.323-67.097-10.323-99.097 0-62.968 12.387-122.839 37.161-180.645s57.806-107.355 100.129-148.645c42.323-41.29 91.871-74.323 149.677-99.097s118.71-36.129 181.677-36.129c32 0 66.065 3.097 100.129 10.323 46.452-35.097 98.065-52.645 155.871-52.645 70.194 0 131.097 24.774 180.645 74.323s75.355 109.419 75.355 179.613c-1.032 56.774-18.581 108.387-53.677 153.806zM759.741 250.323c-14.452-25.806-34.065-46.452-58.839-61.935s-51.613-26.839-81.548-35.097c-29.935-8.258-60.903-12.387-92.903-12.387-75.355 0-139.355 14.452-194.065 43.355-53.677 28.903-81.548 64-81.548 104.258 0 19.613 5.161 36.129 16.516 49.548s27.871 19.613 50.581 19.613c12.387 0 24.774-3.097 36.129-10.323s21.677-15.484 30.968-25.806c9.29-10.323 19.613-19.613 29.935-29.935 11.355-10.323 25.806-18.581 43.355-25.806s38.194-10.323 60.903-10.323c28.903 0 52.645 5.161 70.194 16.516s26.839 25.806 26.839 42.323c0 17.548-7.226 30.968-21.677 39.226-9.29 6.194-35.097 14.452-74.323 23.742l-97.032 23.742c-26.839 6.194-49.548 13.419-68.129 21.677s-37.161 18.581-53.677 32c-16.516 13.419-28.903 29.935-37.161 49.548s-12.387 43.355-12.387 70.194c0 32 7.226 60.903 22.71 84.645 14.452 24.774 35.097 43.355 58.839 57.806 24.774 13.419 51.613 23.742 79.484 30.968 28.903 7.226 57.806 10.323 87.742 10.323 42.323 0 82.581-5.161 120.774-15.484s69.161-24.774 94.968-44.387c24.774-19.613 37.161-41.29 37.161-66.065 0-19.613-6.194-37.161-18.581-50.581-12.387-14.452-28.903-20.645-50.581-20.645-11.355 0-21.677 3.097-32 8.258-9.29 5.161-18.581 11.355-26.839 19.613-8.258 7.226-16.516 14.452-25.806 21.677s-20.645 13.419-36.129 18.581c-15.484 5.161-32 8.258-51.613 8.258-64 0-96-16.516-96-50.581 0-7.226 2.065-14.452 5.161-19.613 3.097-6.194 7.226-10.323 11.355-13.419s10.323-7.226 19.613-10.323c9.29-3.097 17.548-6.194 23.742-7.226 6.194-2.065 15.484-4.129 28.903-7.226l69.161-15.484c21.677-5.161 41.29-10.323 57.806-15.484 17.548-5.161 35.097-12.387 54.71-22.71 19.613-9.29 36.129-20.645 48.516-32 12.387-12.387 23.742-26.839 32-45.419s13.419-38.194 13.419-60.903c1.032-32-6.194-60.903-20.645-86.71z" />
<glyph unicode="&#xe928;" glyph-name="25" d="M18.116 465.866l235.788-85.114 92.015-284.096c5.751-18.403 28.755-25.304 43.707-12.652l131.121 103.517c13.802 10.352 33.355 11.502 48.308 1.15l236.939-166.777c16.103-11.502 39.106-2.3 43.707 16.103l173.678 808.582c4.601 20.703-17.253 37.956-36.806 31.055l-968.458-361.159c-24.154-9.202-24.154-41.407 0-50.608zM330.967 426.76l461.225 274.895c8.051 4.601 17.253-5.751 9.202-12.652l-380.712-342.756c-13.802-11.502-21.854-27.605-24.154-46.008l-12.652-93.165c-1.15-12.652-19.553-13.802-23.004-1.15l-49.458 169.078c-6.901 20.703 1.15 41.407 19.553 51.758z" />
<glyph unicode="&#xe929;" glyph-name="26" d="M386.322 447.38h-127.536v175.826h126.297v104.010c0 79.245 14.859 137.441 43.337 175.826s82.96 56.958 162.206 56.958h174.588v-175.826h-121.345c-30.955 0-49.528-4.953-56.958-16.097s-12.382-29.717-12.382-55.719v-87.913h190.684l-17.335-175.826h-172.111v-512.619h-189.446v511.381z" />
<glyph unicode="&#xe92a;" glyph-name="27" horiz-adv-x="1008" d="M503.487 952.003c-276.869 0-503.491-225.597-503.491-504.516 0-177.401 92.29-333.268 230.724-422.481 4.102-4.102 9.229-7.178 15.382-9.229 75.882-45.119 164.070-71.781 258.411-71.781 277.894 0 503.491 225.597 503.491 503.491 0 278.919-225.597 504.516-504.516 504.516zM503.487 21.93c-73.832 0-143.561 19.483-204.062 52.297 11.28 98.442 93.315 167.147 204.062 167.147 111.773 0 192.783-69.73 204.062-168.172-61.526-32.814-130.231-51.272-204.062-51.272zM384.536 462.869c0 65.628 53.323 119.976 119.976 119.976 65.628 0 119.976-53.323 119.976-119.976s-53.323-119.976-119.976-119.976c-66.654 0-119.976 53.323-119.976 119.976zM777.279 122.423c-21.534 82.035-81.010 146.638-162.019 177.401 52.297 35.89 86.137 95.366 86.137 163.045 0 108.697-89.213 197.91-197.91 197.91s-197.91-89.213-197.91-197.91c0-67.679 33.839-127.154 85.111-163.045-81.010-30.763-140.485-95.366-162.019-176.376-92.29 77.933-150.74 194.833-150.74 325.064 0 234.826 190.732 425.557 425.557 425.557s425.557-190.732 425.557-425.557c1.025-131.256-58.45-248.156-151.765-326.090z" />
<glyph unicode="&#xe92b;" glyph-name="28" d="M980.293 772.683h-271.61v140.488c0 22.894-18.732 42.667-42.667 42.667h-310.114c-22.894 0-42.667-18.732-42.667-42.667v-140.488h-270.569c-22.894 0-42.667-18.732-42.667-42.667v-747.187c0-22.894 18.732-42.667 42.667-42.667h938.667c22.894 0 42.667 18.732 42.667 42.667v747.187c-1.041 23.935-19.772 42.667-43.707 42.667zM398.569 871.544h225.821v-98.862h-225.821v98.862zM938.667 25.496h-853.333v662.894h853.333v-662.894z" />
<glyph unicode="&#xe92c;" glyph-name="29" d="M795.801 296.807c-27.801 0-49.81-23.167-49.81-50.968v-158.697c0-27.801-22.009-50.968-49.81-50.968h-546.751c-27.801 0-49.81 23.167-49.81 50.968v657.955c0 27.801 22.009 50.968 49.81 50.968h288.434c27.801 0 49.81 23.167 49.81 50.968s-22.009 50.968-49.81 50.968h-288.434c-82.244 0-149.43-68.344-149.43-151.747v-657.955c0-83.403 67.186-151.747 149.43-151.747h546.751c82.244 0 149.43 68.344 149.43 151.747v158.697c0 27.801-22.009 49.81-49.81 49.81zM968.398 903.793c-35.91 35.91-83.403 54.443-130.896 55.602-49.81 1.158-99.62-17.376-137.846-55.602l-335.928-342.878c-48.652-49.81-76.452-116.995-76.452-187.656v-113.52c0-27.801 22.009-50.968 49.81-50.968h111.204c69.502 0 134.371 27.801 184.181 77.611l335.928 341.719c74.136 76.452 74.136 199.24 0 275.692zM561.81 359.359c-30.118-31.276-70.661-47.493-113.52-47.493h-61.394v62.552c0 44.018 16.217 84.561 47.493 115.837l221.249 225.882 128.579-130.896-222.407-225.882zM897.738 701.078l-44.018-45.176-128.579 130.896 44.018 45.176c35.91 35.91 92.67 35.91 128.579 0s35.91-94.986 0-130.896z" />
<glyph unicode="&#xe92d;" glyph-name="30" d="M909.312 233.984v143.36c0 57.344-47.104 104.448-104.448 104.448h-260.096v177.152c59.392 15.36 104.448 69.632 104.448 134.144 0 76.8-62.464 138.24-139.264 138.24s-139.264-62.464-139.264-138.24c0-64.512 44.032-118.784 104.448-134.144v-178.176h-260.096c-57.344 0-104.448-46.080-104.448-104.448v-143.36c-59.392-14.336-103.424-68.608-103.424-133.12 0-76.8 62.464-138.24 139.264-138.24s139.264 62.464 139.264 138.24c0 64.512-44.032 118.784-104.448 134.144v143.36c0 19.456 15.36 34.816 34.816 34.816h260.096v-178.176c-59.392-15.36-104.448-69.632-104.448-134.144 0-76.8 62.464-138.24 139.264-138.24s139.264 62.464 139.264 138.24c0 64.512-44.032 118.784-104.448 134.144v178.176h260.096c19.456 0 34.816-15.36 34.816-34.816v-143.36c-59.392-15.36-104.448-69.632-104.448-134.144 0-76.8 62.464-138.24 139.264-138.24 75.776-1.024 138.24 61.44 138.24 138.24 0 64.512-44.032 118.784-104.448 134.144zM215.040 99.84c0-37.888-30.72-69.632-69.632-69.632-37.888 0-69.632 30.72-69.632 69.632 0 37.888 30.72 69.632 69.632 69.632s69.632-31.744 69.632-69.632zM441.344 793.088c0 37.888 30.72 69.632 69.632 69.632 37.888 0 69.632-30.72 69.632-69.632 0-37.888-30.72-69.632-69.632-69.632s-69.632 31.744-69.632 69.632zM579.584 99.84c0-37.888-30.72-69.632-69.632-69.632-37.888 0-69.632 30.72-69.632 69.632 0 37.888 30.72 69.632 69.632 69.632s69.632-31.744 69.632-69.632zM874.496 30.208c-37.888 0-69.632 30.72-69.632 69.632 0 37.888 30.72 69.632 69.632 69.632 37.888 0 69.632-30.72 69.632-69.632s-30.72-69.632-69.632-69.632z" />
<glyph unicode="&#xe92e;" glyph-name="31" d="M509.952 653.824c-115.712 0-209.92-94.208-209.92-209.92s94.208-209.92 209.92-209.92c115.712 0 209.92 94.208 209.92 209.92s-94.208 209.92-209.92 209.92zM509.952 317.952c-69.632 0-125.952 56.32-125.952 125.952s56.32 125.952 125.952 125.952c69.632 0 125.952-56.32 125.952-125.952s-56.32-125.952-125.952-125.952zM977.92 569.856l-118.784 19.456 71.68 95.232c12.288 16.384 11.264 39.936-4.096 54.272l-119.808 120.832c-14.336 15.36-37.888 16.384-55.296 4.096l-97.28-68.608-18.432 117.76c-3.072 20.48-20.48 34.816-40.96 34.816h-168.96c-20.48 0-38.912-15.36-41.984-35.84l-19.456-118.784-97.28 70.656c-16.384 12.288-39.936 10.24-54.272-4.096l-117.76-118.784c-15.36-14.336-16.384-37.888-4.096-55.296l69.632-97.28-117.76-16.384c-20.48-3.072-35.84-20.48-35.84-41.984v-167.936c0-20.48 15.36-38.912 35.84-41.984l118.784-19.456-71.68-95.232c-12.288-16.384-11.264-39.936 4.096-55.296l118.784-118.784c14.336-15.36 37.888-16.384 55.296-4.096l97.28 69.632 16.384-117.76c3.072-20.48 20.48-35.84 41.984-35.84h167.936c20.48 0 38.912 15.36 41.984 35.84l19.456 119.808 95.232-71.68c16.384-12.288 39.936-11.264 55.296 4.096l117.76 120.832c14.336 14.336 16.384 37.888 4.096 55.296l-70.656 97.28 121.856 14.336c21.504 2.048 36.864 20.48 36.864 41.984v166.912c0 20.48-15.36 38.912-35.84 41.984zM843.776 387.584c-30.72-4.096-57.344-24.576-66.56-52.224-12.288-27.648-8.192-59.392 9.216-83.968l49.152-65.536-67.584-67.584-65.536 50.176c-24.576 18.432-56.32 21.504-80.896 10.24-29.696-10.24-50.176-36.864-54.272-67.584l-11.264-81.92h-95.232l-11.264 80.896c-4.096 30.72-24.576 57.344-52.224 66.56-27.648 12.288-59.392 8.192-83.968-9.216l-65.536-49.152-67.584 67.584 49.152 65.536c17.408 24.576 21.504 56.32 10.24 80.896-10.24 29.696-36.864 50.176-67.584 54.272l-81.92 11.264v95.232l80.896 11.264c30.72 4.096 57.344 24.576 66.56 52.224 12.288 27.648 8.192 59.392-9.216 83.968l-49.152 65.536 67.584 67.584 67.584-49.152c24.576-18.432 56.32-21.504 80.896-10.24 29.696 11.264 50.176 36.864 54.272 67.584l11.264 81.92h95.232l13.312-80.896c4.096-31.744 24.576-57.344 52.224-67.584 27.648-12.288 59.392-8.192 83.968 9.216l65.536 49.152 68.608-68.608-50.176-66.56c-17.408-24.576-21.504-56.32-10.24-80.896 10.24-29.696 36.864-50.176 67.584-54.272l81.92-11.264v-95.232l-84.992-9.216z" />
<glyph unicode="&#xe92f;" glyph-name="32" d="M528.384 49.664h-337.92c-20.48 0-37.888 16.384-37.888 37.888v677.888c0 20.48 16.384 37.888 37.888 37.888h337.92c20.48 0 37.888 16.384 37.888 37.888 0 20.48-16.384 37.888-37.888 37.888h-337.92c-62.464 0-112.64-51.2-112.64-112.64v-677.888c0-62.464 50.176-112.64 112.64-112.64h337.92c20.48 0 37.888 16.384 37.888 37.888 0 19.456-17.408 35.84-37.888 35.84zM970.752 454.144l-228.352 225.28c-14.336 14.336-38.912 14.336-53.248 0s-14.336-38.912 0-53.248l162.816-161.792h-436.224c-20.48 0-37.888-16.384-37.888-37.888 0-20.48 16.384-37.888 37.888-37.888h437.248l-162.816-160.768c-14.336-14.336-15.36-38.912 0-53.248 7.168-7.168 17.408-11.264 26.624-11.264s19.456 4.096 26.624 11.264l228.352 226.304c7.168 7.168 11.264 16.384 11.264 26.624-1.024 9.216-5.12 19.456-12.288 26.624z" />
<glyph unicode="&#xe930;" glyph-name="33" d="M1017.801 602.478c-2.067 29.966-36.165 52.698-105.397 70.264 2.067 5.166 4.133 10.333 4.133 16.533v120.896c-6.2 100.23-411.253 103.33-457.752 103.33s-452.585-3.1-458.785-103.33v0-120.896c0-33.066 41.332-57.865 103.33-77.497-1.033-3.1-1.033-6.2-1.033-8.266v0-119.863c-67.164-17.566-100.23-40.299-101.263-69.231v0-121.929c0-22.733 20.666-42.365 53.732-57.865-1.033-3.1-2.067-7.233-2.067-10.333v0-120.896c0-56.831 127.096-92.997 268.658-109.53 1.033 0 2.067-1.033 3.1-1.033 0 0 1.033 0 1.033 0 26.866-3.1 54.765-5.166 82.664-7.233 1.033 0 1.033 0 2.067 0 0 0 1.033 0 1.033 0 35.132-2.067 69.231-3.1 101.263-3.1s66.131 1.033 101.263 3.1c0 0 1.033 0 1.033 0 1.033 0 1.033 0 2.067 0 26.866 2.067 54.765 4.133 82.664 7.233 0 0 1.033 0 1.033 0 1.033 0 2.067 0 3.1 1.033 141.562 16.533 268.658 52.698 268.658 109.53v119.863c-1.033 20.666-18.599 39.265-53.732 53.732 2.067 5.166 3.1 10.333 3.1 15.499v112.63c60.965 18.599 101.263 44.432 102.297 76.464l-6.2 120.896zM880.372 287.322l-6.2-5.166c-9.3-8.266-23.766-16.533-43.399-23.766v82.664c20.666 7.233 37.199 15.499 50.632 23.766v-71.298c1.033-2.067 0-4.133-1.033-6.2zM501.151 206.725c-2.067 0-5.166 0-7.233 0-6.2 0-12.4 0-18.599 0v85.764c5.166 0 9.3 0 14.466 0 1.033 0 2.067 0 3.1 0 17.566 0 34.099 1.033 51.665 2.067v-85.764c-4.133 0-7.233 0-11.366 0-11.366-1.033-21.699-1.033-32.032-2.067zM426.753 206.725c-8.266 0-15.499 0-22.733 1.033-1.033 0-2.067 0-3.1 0-9.3 0-18.599 1.033-27.899 1.033v85.764c16.533-1.033 34.099-1.033 51.665-2.067 1.033 0 2.067 0 3.1 0 5.166 0 9.3 0 14.466 0v-85.764c-3.1 0-6.2 0-10.333 0-2.067 0-4.133 0-5.166 0zM120.897 245.99c-1.033 0-1.033 0-2.067 0v83.697c15.499-4.133 33.066-8.266 50.632-12.4v-83.697c-15.499 3.1-29.966 7.233-43.399 10.333-1.033 1.033-4.133 2.067-5.166 2.067zM478.418 103.395c5.166 0 9.3 0 14.466 0v-85.764c-23.766 0-46.498 1.033-68.198 2.067v85.764c16.533-1.033 34.099-1.033 51.665-2.067 0 0 1.033 0 2.067 0zM542.483 103.395c17.566 0 34.099 1.033 51.665 2.067v-86.797c-21.699-1.033-44.432-2.067-68.198-2.067v85.764c5.166 0 9.3 0 14.466 0 0 1.033 1.033 1.033 2.067 1.033zM678.879 111.661v-85.764c-16.533-2.067-33.066-3.1-50.632-4.133v85.764c16.533 1.033 34.099 2.067 50.632 4.133zM711.944 114.761c17.566 2.067 34.099 4.133 50.632 7.233v-84.731c-15.499-3.1-33.066-5.166-50.632-8.266v85.764zM797.708 128.194c17.566 3.1 35.132 7.233 50.632 12.4v-83.697c-15.499-4.133-32.032-8.266-50.632-12.4v83.697zM220.093 128.194v-83.697c-18.599 4.133-36.165 8.266-50.632 12.4v83.697c15.499-4.133 33.066-8.266 50.632-12.4zM254.192 121.994c16.533-3.1 33.066-5.166 50.632-7.233v-84.731c-17.566 2.067-35.132 5.166-50.632 8.266v83.697zM338.923 111.661c16.533-2.067 34.099-3.1 50.632-4.133v-85.764c-17.566 1.033-34.099 3.1-50.632 4.133v85.764zM297.591 213.958c-2.067 0-3.1 0-5.166 1.033-1.033 0-2.067 0-4.133 0v85.764c16.533-2.067 34.099-3.1 50.632-4.133v-85.764c-13.433 1.033-27.899 2.067-41.332 3.1zM254.192 304.888v-84.731c-17.566 2.067-35.132 5.166-50.632 8.266v84.731c16.533-4.133 33.066-6.2 50.632-8.266zM587.948 211.891c-4.133 0-7.233-1.033-11.366-1.033v85.764c17.566 1.033 34.099 2.067 50.632 4.133v-85.764c-10.333-1.033-21.699-2.067-32.032-3.1-2.067 0-5.166 0-7.233 0zM661.312 219.124v84.731c17.566 2.067 34.099 4.133 50.632 7.233v-84.731c-15.499-2.067-32.032-5.166-50.632-7.233zM746.043 318.321c17.566 3.1 35.132 7.233 50.632 12.4v-83.697c-15.499-4.133-32.032-8.266-50.632-12.4v83.697zM514.584 396.852c-12.4 0-24.799 1.033-37.199 1.033-1.033 0-1.033 0-2.067 0v85.764c16.533-1.033 34.099-1.033 51.665-2.067 1.033 0 2.067 0 3.1 0 5.166 0 9.3 0 14.466 0v-85.764c-8.266 0-16.533 0-24.799 0-3.1 1.033-4.133 1.033-5.166 1.033zM118.83 642.777v83.697c15.499-4.133 33.066-8.266 50.632-12.4v-83.697c-2.067 0-4.133 1.033-6.2 1.033-9.3 2.067-17.566 4.133-25.832 6.2-7.233 2.067-12.4 4.133-18.599 5.166zM426.753 689.276c5.166 0 9.3 0 14.466 0v-85.764c-22.733 0-45.465 1.033-68.198 2.067v85.764c16.533-1.033 34.099-1.033 51.665-2.067 1.033 0 1.033 0 2.067 0zM491.851 689.276c17.566 0 34.099 1.033 51.665 2.067v-85.764c-3.1 0-5.166 0-8.266 0 0 0 0 0-1.033 0-11.366-1.033-22.733-1.033-35.132-1.033-2.067 0-4.133 0-5.166 0-6.2 0-12.4 0-18.599 0v85.764c5.166 0 9.3 0 14.466 0 0-1.033 1.033-1.033 2.067-1.033zM878.305 681.009v0l-6.2-5.166c-9.3-7.233-22.733-14.466-40.299-20.666v81.631c20.666 7.233 37.199 15.499 50.632 23.766v-71.298c0-3.1-2.067-5.166-4.133-8.266zM661.312 615.911v84.731c17.566 2.067 34.099 4.133 50.632 7.233v-84.731c-15.499-2.067-32.032-5.166-50.632-7.233zM746.043 630.378v83.697c17.566 3.1 35.132 7.233 50.632 12.4v-82.664c-14.466-5.166-32.032-9.3-50.632-13.433zM627.214 697.542v-85.764c-16.533-2.067-33.066-3.1-50.632-4.133v85.764c17.566 1.033 34.099 2.067 50.632 4.133zM288.291 611.778v85.764c16.533-2.067 34.099-3.1 50.632-4.133v-85.764c-16.533 1.033-34.099 2.067-50.632 4.133zM254.192 700.642v-84.731c-3.1 0-7.233 1.033-10.333 1.033-2.067 0-4.133 1.033-6.2 1.033-9.3 1.033-19.633 3.1-28.932 4.133-2.067 0-4.133 1.033-5.166 1.033v84.731c16.533-2.067 33.066-5.166 50.632-7.233zM437.086 400.985c-2.067 0-4.133 0-7.233 0-11.366 1.033-21.699 2.067-32.032 3.1-2.067 0-4.133 0-6.2 1.033 0 0-1.033 0-1.033 0v85.764c16.533-2.067 34.099-3.1 50.632-4.133v-85.764c-1.033-1.033-3.1 0-4.133 0zM324.457 413.385c-6.2 1.033-13.433 2.067-19.633 3.1v84.731c16.533-3.1 33.066-5.166 50.632-7.233v-84.731c-10.333 1.033-20.666 3.1-29.966 4.133 0 0 0 0-1.033 0zM271.758 507.415v-83.697c-18.599 4.133-36.165 8.266-50.632 13.433v82.664c15.499-5.166 32.032-8.266 50.632-12.4zM187.028 530.147v-81.631c-26.866 10.333-43.399 20.666-49.598 30.999l-1.033 2.067c0 1.033 0 1.033 0 2.067v71.298c12.4-10.333 29.966-17.566 50.632-24.799zM593.115 482.616c17.566 0 34.099 1.033 51.665 2.067v-85.764c-22.733-1.033-45.465-2.067-68.198-2.067v85.764c5.166 0 9.3 0 14.466 0 1.033 0 1.033 0 2.067 0zM812.174 416.485c-7.233-1.033-14.466-3.1-22.733-4.133-4.133-1.033-9.3-1.033-13.433-2.067s-8.266-1.033-13.433-2.067v85.764c17.566 2.067 34.099 4.133 50.632 7.233v-84.731c0 0 0 0-1.033 0zM697.478 402.018c-6.2-1.033-12.4-1.033-19.633-1.033v85.764c17.566 1.033 34.099 2.067 50.632 4.133v-85.764c-10.333-1.033-19.633-2.067-29.966-3.1 0 0 0 0-1.033 0zM891.738 434.051c-8.266-2.067-17.566-4.133-26.866-7.233-4.133-1.033-8.266-2.067-13.433-3.1-1.033 0-3.1-1.033-4.133-1.033v83.697c17.566 3.1 35.132 7.233 50.632 12.4v-83.697c-1.033 0-4.133 0-6.2-1.033zM983.702 601.445c-2.067-11.366-27.899-26.866-74.398-42.365v0c-59.931-18.599-153.962-36.165-272.791-41.332-6.2 0-12.4-1.033-18.599-1.033-5.166 0-10.333 0-15.499 0-14.466 0-27.899-1.033-43.399-1.033-14.466 0-28.932 0-43.399 1.033-5.166 0-10.333 0-15.499 0-6.2 0-12.4 0-18.599 1.033-118.829 5.166-212.86 22.733-272.791 41.332v0c-46.498 14.466-72.331 29.966-74.398 41.332 0 0 0 1.033 0 1.033 1.033 0 2.067-1.033 3.1-1.033 6.2-2.067 13.433-3.1 20.666-4.133 34.099-7.233 71.298-13.433 110.563-17.566 0 0 0 0 0 0s0 0 0 0c26.866-3.1 54.765-5.166 83.697-7.233 0 0 0 0 1.033 0 0 0 0 0 0 0 20.666-1.033 41.332-2.067 63.031-3.1 13.433 0 25.832 0 38.232 0 9.3 0 17.566 0 26.866 0 122.963 2.067 237.659 16.533 317.223 40.299 4.133 1.033 7.233 2.067 10.333 3.1 2.067 1.033 4.133 1.033 6.2 2.067 6.2 2.067 12.4 4.133 17.566 6.2 1.033 0 2.067 1.033 3.1 1.033 5.166 2.067 9.3 4.133 13.433 6.2 1.033 1.033 2.067 1.033 4.133 2.067 5.166 2.067 9.3 4.133 13.433 6.2 2.067 1.033 3.1 2.067 5.166 3.1s4.133 2.067 6.2 4.133c1.033 1.033 2.067 1.033 3.1 2.067 80.597-17.566 100.23-36.165 102.297-43.399zM457.752 878.37c280.024 0 421.586-44.432 423.653-70.264-2.067-11.366-27.899-26.866-74.398-41.332v0c-59.931-18.599-153.962-36.165-272.791-41.332-6.2 0-12.4 0-18.599-1.033-5.166 0-10.333 0-15.499 0-14.466 0-27.899-1.033-43.399-1.033-14.466 0-28.932 0-43.399 1.033-5.166 0-10.333 0-15.499 0-6.2 0-12.4 0-18.599 1.033-118.829 5.166-212.86 22.733-272.791 41.332v0c-46.498 14.466-72.331 29.966-74.398 41.332 5.166 25.832 146.729 70.264 425.72 70.264zM34.099 689.276v71.298c13.433-8.266 30.999-16.533 50.632-23.766v-82.664c-33.066 12.4-50.632 24.799-50.632 35.132zM115.73 450.583c1.033 0 1.033 0 0 0 23.766-24.799 72.331-43.399 132.262-56.831 1.033 0 3.1-1.033 4.133-1.033 4.133-1.033 9.3-2.067 13.433-3.1 54.765-12.4 120.896-20.666 192.194-24.799 0 0 0 0 0 0s0 0 0 0c22.733-1.033 46.498-2.067 70.264-3.1 10.333 0 20.666 0 30.999 0 11.366 0 23.766 0 36.165 0 21.699 0 44.432 1.033 65.098 3.1 0 0 0 0 0 0s0 0 0 0c71.298 4.133 138.462 13.433 196.327 25.832-12.4-6.2-28.932-13.433-50.632-19.633v0c-63.031-19.633-164.295-38.232-293.457-42.365-4.133 0-7.233 0-11.366 0s-8.266 0-12.4 0c-10.333 0-21.699 0-32.032 0-14.466 0-28.932 0-43.399 1.033-5.166 0-10.333 0-15.499 0-6.2 0-12.4 0-18.599 1.033-118.829 5.166-212.86 22.733-272.791 41.332v0c-46.498 14.466-72.331 29.966-74.398 42.365 4.133 4.133 20.666 20.666 83.697 36.165zM34.099 292.489v71.298c13.433-8.266 30.999-16.533 50.632-23.766v-82.664l-9.3 4.133c-26.866 11.366-41.332 22.733-41.332 30.999zM84.731 103.395v71.298c13.433-8.266 30.999-16.533 50.632-23.766v-82.664c-33.066 12.4-50.632 24.799-50.632 35.132zM882.439 68.262v82.664c20.666 7.233 37.199 15.499 50.632 23.766v-71.298c0-10.333-17.566-22.733-50.632-35.132zM933.070 222.224c-2.067-11.366-27.899-26.866-74.398-41.332v0c-59.931-18.599-153.962-36.165-272.791-41.332-6.2 0-12.4-1.033-18.599-1.033-5.166 0-10.333 0-15.499 0-14.466 0-27.899-1.033-43.399-1.033-14.466 0-28.932 0-43.399 1.033-5.166 0-10.333 0-15.499 0-6.2 0-12.4 0-18.599 1.033-118.829 5.166-212.86 22.733-272.791 41.332v0c-44.432 14.466-71.298 28.932-74.398 40.299 5.166-2.067 10.333-3.1 15.499-5.166 1.033 0 1.033 0 2.067 0 4.133-1.033 9.3-3.1 14.466-4.133 2.067 0 4.133-1.033 5.166-1.033 3.1-1.033 5.166-1.033 8.266-2.067 61.998-16.533 140.529-27.899 226.293-33.066 0 0 0 0 0 0s0 0 0 0c25.832-2.067 52.698-2.067 80.597-3.1 7.233 0 14.466 0 21.699 0 9.3 0 18.599 0 28.932 0 24.799 0 49.598 1.033 73.364 3.1 0 0 0 0 0 0s0 0 0 0c28.932 2.067 56.831 4.133 84.731 7.233 0 0 0 0 0 0s1.033 0 1.033 0c29.966 3.1 58.898 8.266 84.731 13.433 5.166 1.033 10.333 2.067 16.533 3.1 1.033 0 2.067 0 3.1 1.033 49.598 10.333 92.997 23.766 122.963 40.299 2.067 1.033 3.1 2.067 5.166 3.1s4.133 2.067 5.166 3.1c2.067 1.033 3.1 2.067 5.166 3.1 34.099-12.4 43.399-23.766 44.432-27.899zM933.070 447.484v82.664c20.666 7.233 37.199 15.499 50.632 23.766v-71.298c0-10.333-17.566-22.733-50.632-35.132z" />
<glyph unicode="&#xe931;" glyph-name="34" d="M18.847 398.793l387.403-413.579c25.129-27.223 64.916-26.176 90.045 1.047s24.082 71.198-1.047 97.374l-276.417 295.264h741.301c35.599 0 63.869 30.364 63.869 69.104 0 37.693-28.27 69.104-63.869 69.104h-741.301l276.417 295.264c25.129 27.223 25.129 70.151 1.047 97.374-12.564 13.611-29.317 20.941-45.022 20.941s-32.458-6.282-45.022-19.894l-387.403-413.579c-12.564-12.564-18.847-30.364-18.847-49.211s7.329-36.646 18.847-49.211z" />
<glyph unicode="&#xe932;" glyph-name="35" d="M955.457 890.808c-90.353 90.353-237.826 90.353-328.179 0l-177.59-176.552c-7.27-7.27-7.27-19.732 0-27.002s19.732-7.27 27.002 0l177.59 176.552c36.349 35.31 85.16 55.043 137.087 55.043s100.738-19.732 137.087-56.081c36.349-36.349 56.081-84.122 56.081-136.049s-19.732-99.7-56.081-136.049l-232.633-231.594c-75.813-74.775-198.361-74.775-273.136 0-7.27 7.27-19.732 7.27-27.002 0s-7.27-19.732 0-27.002c45.696-44.657 104.893-67.505 164.089-67.505s118.394 22.848 164.089 67.505l232.633 231.594c43.619 43.619 67.505 101.777 67.505 163.051-1.039 62.312-24.925 120.471-68.544 164.089zM518.232 182.524l-150.588-150.588c-36.349-36.349-85.16-56.081-137.087-56.081s-100.738 19.732-137.087 56.081c-75.813 74.775-75.813 197.323 0 272.097l219.132 218.093c75.813 74.775 198.361 74.775 273.136 0 7.27-7.27 19.732-7.27 27.002 0s7.27 19.732 0 27.002c-90.353 90.353-237.826 90.353-328.179 0l-217.055-217.055c-43.619-43.619-67.505-101.777-67.505-163.051s23.886-120.471 67.505-164.089c43.619-43.619 101.777-67.505 164.089-67.505s120.471 23.886 164.089 67.505l149.55 149.55c7.27 7.27 7.27 19.732 0 27.002-7.27 8.308-19.732 8.308-27.002 1.039zM655.319 109.826c-10.385 0-19.732-8.308-19.732-19.732v-115.278c0-10.385 8.308-19.732 19.732-19.732 10.385 0 19.732 8.308 19.732 19.732v116.316c0 10.385-8.308 18.694-19.732 18.694zM742.557 143.059c-7.27 7.27-19.732 7.27-27.002 0s-7.27-19.732 0-27.002l82.045-82.045c4.154-4.154 8.308-5.193 13.501-5.193s10.385 2.077 13.501 5.193c7.27 7.27 7.27 19.732 0 27.002l-82.045 82.045zM868.22 226.142h-115.278c-10.385 0-19.732-8.308-19.732-19.732s8.308-19.732 19.732-19.732h116.316c10.385 0 19.732 8.308 19.732 19.732s-10.385 19.732-20.771 19.732zM308.447 746.451c10.385 0 19.732 8.308 19.732 19.732v114.239c0 10.385-8.308 19.732-19.732 19.732-10.385 0-19.732-8.308-19.732-19.732v-115.278c0-10.385 8.308-18.694 19.732-18.694zM221.21 713.217c4.154-4.154 8.308-5.193 13.501-5.193s10.385 2.077 13.501 5.193c7.27 7.27 7.27 19.732 0 27.002l-82.045 82.045c-7.27 7.27-19.732 7.27-27.002 0s-7.27-19.732 0-27.002l82.045-82.045zM95.547 630.134h116.316c10.385 0 19.732 8.308 19.732 19.732s-8.308 19.732-19.732 19.732h-116.316c-10.385 0-19.732-8.308-19.732-19.732s9.347-19.732 19.732-19.732z" />
</font>
</defs>
</svg>
